<svg width="360" height="327" viewBox="0 0 360 327" fill="none" xmlns="http://www.w3.org/2000/svg">
<rect y="0.0521851" width="360" height="326" fill="#D8D8D8"/>
<mask id="mask0_1_95" style="mask-type:luminance" maskUnits="userSpaceOnUse" x="0" y="0" width="360" height="327">
<rect y="0.0521851" width="360" height="326" fill="white"/>
</mask>
<g mask="url(#mask0_1_95)">
<rect width="361.096" height="330" transform="matrix(1 0 0 -1 0 330)" fill="url(#paint0_linear_1_95)"/>
<mask id="mask1_1_95" style="mask-type:luminance" maskUnits="userSpaceOnUse" x="0" y="0" width="362" height="330">
<rect width="361.096" height="330" transform="matrix(1 0 0 -1 0 330)" fill="white"/>
</mask>
<g mask="url(#mask1_1_95)">
<ellipse cx="146.669" cy="41.1533" rx="1.30064" ry="1.29936" fill="white"/>
<ellipse cx="54.1728" cy="13.3149" rx="1.81484" ry="1.81305" fill="white"/>
<ellipse cx="37.0364" cy="50.6848" rx="1.81484" ry="1.81305" fill="white"/>
<path d="M361 326.625C361 326.625 309.224 246.869 215.649 240.691C118.759 234.298 112.178 278.765 55.3658 264.994C-1.44589 251.224 -0.999939 200 -0.999939 200L0.858093 330L361 326.625Z" fill="url(#paint1_linear_1_95)"/>
<path d="M0 328.145C0 328.145 36.0461 245.587 134.061 239.318C235.554 232.824 242.447 277.978 301.958 263.996C361.47 250.013 361 198 361 198L359.06 330L0 328.145Z" fill="url(#paint2_linear_1_95)"/>
<g style="mix-blend-mode:overlay" opacity="0.3">
<path d="M351.301 25C355.647 37.7802 361.428 50.0904 367.245 61.3359C370.101 66.8987 373.224 72.987 376.278 79.4854L377.606 77.7803C374.903 71.139 372.08 64.7969 369.437 58.8838C364.528 48.0116 359.868 36.6186 356.334 25.0137H358.909C362.388 36.3099 366.927 47.3714 371.706 57.9717C374.174 63.5021 376.804 69.4058 379.341 75.5859L380.67 73.9043C378.456 67.5027 376.093 61.3078 373.842 55.3809C369.974 45.4362 366.618 35.3004 363.785 25.0137H366.346C369.021 34.9317 372.458 44.8314 376.177 54.5928C378.216 59.9481 380.379 65.6541 382.46 71.6455L383.696 70.0742C381.957 63.7878 380.07 57.6995 378.267 51.874C375.563 43.2049 372.952 34.1988 370.885 25.0088H373.408C375.443 33.9683 377.994 42.758 380.619 51.2197C382.257 56.506 383.95 62.0229 385.556 67.6963L386.718 66.2305C385.431 60.1653 384.047 54.1964 382.663 48.3662C380.841 40.6788 379.12 32.8436 377.736 25.0088H380.241C381.611 32.747 383.308 40.4446 385.112 48.0537C386.321 53.1832 387.553 58.4328 388.697 63.7559L389.763 62.3955C388.997 56.842 388.125 51.3808 387.267 46.0439L387.073 44.8457C386.081 38.67 385.016 32.0056 384.153 25.0049H386.635C387.488 31.8765 388.536 38.4254 389.514 44.4951L389.703 45.6982C390.446 50.2885 391.189 54.9802 391.876 59.7363L392.799 58.5615C392.471 53.4367 392.065 48.3854 391.659 43.4541L391.442 40.8311C391.023 35.7477 390.589 30.4523 390.257 25.0049H392.734C393.071 30.3832 393.486 35.6279 393.901 40.6514L394.113 43.2695C394.45 47.362 394.787 51.5098 395.082 55.7129L395.853 54.7451C395.917 50.0074 395.917 45.3296 395.917 40.7578V25.0234H398.386V40.7578C398.413 44.3203 398.418 47.9244 398.386 51.6113L398.948 50.9385C399.368 46.5187 399.737 42.1586 400.092 37.8955L400.812 29.1807C400.922 27.798 401.038 26.4149 401.153 25.0322H403.617C403.493 26.4794 403.372 27.9316 403.257 29.3604L402.537 38.0801C402.284 41.141 402.022 44.2569 401.741 47.4004L401.975 47.1035C402.722 42.9974 403.414 38.905 404.105 34.8311L404.798 30.7656C405.121 28.8806 405.444 26.9541 405.767 25.0322H408.285C407.944 27.083 407.598 29.1293 407.257 31.1387L406.564 35.2041C406.182 37.453 405.794 39.7158 405.402 41.9785C406.325 38.4514 407.247 34.9406 408.17 31.4473L409.272 27.2354L409.845 25.0322H412.382C412.123 25.954 411.902 26.8761 411.662 27.7979L410.564 32.0059C410.394 32.6555 410.219 33.3145 410.048 33.9688C410.703 32.1483 411.363 30.323 412.009 28.5117L413.259 25.0322H415.86L415.399 26.2861L415.976 25.0322H419.501L421 27.0928L419.113 29.4795C417.383 32.0189 415.649 34.614 413.965 37.0889C412.512 39.6375 411.012 42.2236 409.513 44.8184C408.253 47.4866 406.952 50.1639 405.646 52.8506C404.655 55.4177 403.663 57.9855 402.616 60.5664C401.864 63.0137 401.061 65.4747 400.24 67.9404C399.53 70.8992 398.755 73.8672 397.934 76.8398C397.477 79.2733 396.964 81.7436 396.406 84.2139C396.079 86.6749 395.723 89.1268 395.262 91.5879C395.036 94.201 394.714 96.8097 394.34 99.4229C394.214 101.841 394.017 104.267 393.749 106.7C393.68 109.558 393.496 112.42 393.219 115.291C393.203 117.709 393.106 120.135 392.928 122.568C392.965 124.744 392.955 126.928 392.845 129.117C392.96 131.712 392.951 134.33 392.845 136.952C392.919 138.455 392.918 139.962 392.918 141.474C393.187 144.418 393.305 147.375 393.27 150.332C393.403 151.94 393.421 153.554 393.463 155.167C393.83 158.452 393.994 161.756 393.956 165.062C394.108 166.804 394.284 168.546 394.316 170.283C394.575 172.689 394.74 175.095 394.777 177.491C396.134 189.34 394.778 201.144 389.703 212.712C389.615 212.905 389.527 213.104 389.444 213.298C371.969 252.214 322.089 264.967 273.824 261.243C268.024 278.783 263.612 296.751 260.63 314.981H258.352C261.256 296.684 265.603 278.645 271.352 261.031C269.336 260.87 267.343 260.643 265.354 260.408C258.336 278.046 253.045 296.323 249.558 314.981H247.066C250.548 296.221 255.835 277.841 262.854 260.096C260.904 259.85 258.964 259.573 257.036 259.266L256.977 259.39C248.623 277.132 242.374 295.79 238.356 314.981H235.847C239.424 297.702 244.798 280.842 251.879 264.677C252.732 262.727 253.618 260.787 254.518 258.86C253.244 258.653 251.966 258.426 250.697 258.191C250.112 258.081 249.512 257.934 248.922 257.818C248.793 258.03 248.663 258.261 248.538 258.491C238.801 276.246 231.555 295.254 227.003 314.981H224.461C227.563 301.409 231.942 288.16 237.54 275.41C240.207 269.314 243.154 263.323 246.384 257.436C246.402 257.394 246.448 257.358 246.448 257.316C244.658 256.962 242.864 256.574 241.069 256.196C240.77 256.68 240.451 257.141 240.146 257.602C229.005 275.313 220.752 294.682 215.696 314.981H213.168C215.895 303.877 219.566 293.025 224.143 282.545C228.106 273.494 232.74 264.751 238.006 256.39C238.163 256.136 238.334 255.896 238.495 255.647C236.756 255.274 235.026 254.952 233.287 254.564C232.757 255.269 232.217 255.956 231.695 256.68C219.216 274.046 209.939 294.053 204.343 314.981H201.81C204.252 305.688 207.411 296.597 211.258 287.79C216.237 276.376 222.404 265.516 229.656 255.39C229.998 254.929 230.352 254.468 230.698 254.007C229.042 253.634 227.414 253.242 225.763 252.859C224.928 253.832 224.078 254.782 223.257 255.791C209.454 272.779 199.088 293.32 192.952 314.981H190.415C192.627 307.059 195.394 299.301 198.695 291.767C204.518 278.338 212.121 265.752 221.301 254.348C221.896 253.61 222.515 252.938 223.119 252.229L218.423 251.136C217.214 252.352 216.001 253.574 214.824 254.859C199.448 271.709 188.006 292.587 181.377 314.981H178.84C180.801 308.229 183.195 301.609 186.009 295.164C192.658 279.845 201.766 265.713 212.974 253.325C213.869 252.334 214.792 251.412 215.715 250.49L213.689 250.029L211.271 249.458C209.634 250.891 208.001 252.375 206.404 253.942C189.676 270.331 177.133 291.772 169.959 314.981H167.408C169.193 309.072 171.326 303.273 173.797 297.615C181.275 280.54 191.73 264.958 204.61 252.325C205.865 251.099 207.152 249.947 208.439 248.795L204.338 247.836C202.197 249.458 200.057 251.177 197.948 253.021C179.915 268.893 166.246 290.937 158.527 314.981H155.943C157.585 309.775 159.502 304.66 161.688 299.657C169.876 281.006 181.686 264.188 196.287 251.32C197.971 249.841 199.669 248.467 201.362 247.14L197.672 246.292C194.955 248.071 192.223 249.96 189.533 252.099C169.853 267.746 155.039 290.154 146.878 314.981H144.271C145.762 310.336 147.501 305.768 149.452 301.312C158.222 281.286 171.408 263.46 187.951 250.315C190.078 248.615 192.246 247.039 194.41 245.568C193.303 245.319 192.195 245.071 191.088 244.831C187.639 246.759 184.299 248.875 181.082 251.168C160.087 266.262 144.059 289.287 135.363 314.981H132.784C134.162 310.809 135.727 306.726 137.48 302.731C146.873 281.291 161.406 262.386 179.592 249.315C182.134 247.495 184.833 245.785 187.67 244.103C186.687 243.895 185.705 243.678 184.727 243.476C180.559 245.47 176.523 247.729 172.644 250.237C150.361 264.746 133.116 288.416 123.89 314.981H121.293C122.566 311.295 123.978 307.608 125.556 303.985C135.544 281.172 151.441 261.224 171.228 248.319C174.384 246.291 177.644 244.428 180.994 242.738L178.572 242.277C173.615 244.274 168.809 246.628 164.192 249.32C140.212 263.497 121.758 287.591 112.116 315H109.538C110.733 311.553 112.039 308.146 113.501 304.81C123.992 280.876 141.232 260.137 162.878 247.315C166.591 245.145 170.428 243.193 174.369 241.471L172.575 241.153C166.778 243.092 161.149 245.501 155.745 248.356C130.505 261.906 110.793 286.679 100.611 314.973H98.0508C99.1487 311.862 100.329 308.778 101.648 305.755C112.711 280.503 131.341 258.773 154.527 246.329C158.805 244.044 163.227 242.042 167.768 240.337C167.417 240.277 167.062 240.227 166.711 240.172C160.039 241.995 153.546 244.418 147.312 247.412C120.333 260.584 99.3834 285.79 88.8281 314.968H86.2812C87.3285 312.023 88.4359 309.087 89.6953 306.211C101.215 279.941 121.173 257.584 146.191 245.375C151.049 243.022 156.068 241.02 161.212 239.384L161 239.355C153.412 241.008 146.004 243.401 138.884 246.499C112.251 258.321 90.9093 282.121 79.2744 310.064L77.6035 307.76C77.7096 307.52 77.7982 307.271 77.9043 307.031C89.9683 279.494 111.351 256.141 137.841 244.397C142.318 242.435 146.918 240.765 151.611 239.397C144.39 240.789 137.313 242.849 130.474 245.55C105.432 255.643 84.8651 275.733 72.1045 300.159L70.5361 297.998C83.6011 273.604 104.334 253.547 129.504 243.407C133.417 241.862 137.413 240.53 141.472 239.42C134.861 240.596 128.363 242.33 122.045 244.601C98.9366 253.053 79.2789 270.179 65.7617 291.477L64.0039 289.021C77.701 267.935 97.5613 251.076 121.149 242.443C124.48 241.222 127.94 240.185 131.465 239.264C125.41 240.274 119.441 241.745 113.611 243.665C92.1453 250.795 73.5346 265.031 59.7637 283.181L58.251 281.125C72.2663 262.916 91.0751 248.647 112.758 241.453C115.194 240.642 117.685 239.945 120.199 239.291C115.12 240.11 110.096 241.246 105.159 242.692C85.3818 248.679 67.9339 260.395 54.2461 275.604L52.8115 273.622C66.7347 258.312 84.4086 246.527 104.412 240.471C106.589 239.821 108.818 239.291 111.046 238.757C106.224 239.469 101.449 240.464 96.7451 241.738C78.9006 246.591 62.7579 256.215 49.416 268.931L48 266.98C61.5725 254.145 77.9638 244.421 96.085 239.489C110.608 235.544 125.376 234.424 140.222 235.056C141.116 235.033 141.947 234.945 142.869 234.945C144.964 234.922 147.072 234.986 149.176 235.037C149.37 235.028 149.55 234.996 149.748 234.996C153.157 234.858 156.581 234.816 160.018 234.857C163.155 234.667 166.304 234.558 169.466 234.53C172.907 234.245 176.363 234.032 179.827 233.936C183.015 233.613 186.194 233.378 189.423 233.207C192.594 232.792 195.773 232.452 198.959 232.185C202.359 231.65 205.773 231.198 209.191 230.802C212.347 230.178 215.512 229.62 218.686 229.129C221.975 228.35 225.269 227.626 228.572 226.967C231.605 226.088 234.643 225.262 237.688 224.487C240.861 223.386 244.054 222.344 247.283 221.335C250.242 220.109 253.226 218.919 256.233 217.764C259.143 216.341 262.074 214.94 265.026 213.561C267.791 211.96 270.578 210.372 273.386 208.799C276.022 206.998 278.68 205.206 281.358 203.421C283.813 201.455 286.285 199.491 288.776 197.53C291.014 195.41 293.32 193.319 295.627 191.222C297.866 188.773 300.096 186.365 302.316 183.999C303.94 181.948 305.574 179.892 307.29 177.772C307.65 177.326 308.033 176.901 308.393 176.44C309.001 175.551 309.596 174.63 310.237 173.708C311.511 171.864 312.858 170.02 314.164 168.177C327.294 146.138 341.72 125.264 356.718 105.119C350.923 97.6483 344.796 90.3343 338.601 83.2275C320.436 62.3682 307.276 42.967 299.119 25.0234H301.791C309.877 42.5121 322.775 61.4204 340.487 81.748C346.535 88.6843 352.524 95.8238 358.198 103.11L359.633 101.197C354.387 93.9938 348.786 86.8454 343.024 79.7617C327.032 60.1929 315.312 41.9468 307.866 25.0234H310.528C317.904 41.5044 329.382 59.2778 344.963 78.3428C350.577 85.219 356.016 92.1784 361.155 99.1836L362.576 97.3027C357.788 90.2467 352.685 83.209 347.417 76.2959C333.392 57.8854 322.997 40.7947 316.23 25.0234H318.893C325.573 40.3399 335.748 56.9777 349.419 74.9365C354.521 81.6561 359.458 88.4494 364.117 95.2842L365.584 93.3672C361.164 86.3618 356.496 79.4941 351.822 72.8252C339.794 55.7053 330.763 39.7714 324.729 25.0234H327.062C334.195 42.0759 344.409 58.0961 353.89 71.5537C358.397 77.9691 362.886 84.597 367.162 91.335L368.546 89.4912C364.597 82.6287 360.417 75.8948 356.229 69.3457C347.957 56.4873 339.076 41.2508 332.774 25.0234H335.395C341.641 40.7854 350.273 55.6028 358.337 68.1387C362.346 74.4019 366.336 80.8542 370.151 87.417L371.535 85.6152C368.084 78.9786 364.398 72.3877 360.634 65.8662C353.336 53.3074 346.052 39.4442 340.765 25.0234H343.361C348.561 39.0295 355.684 52.5101 362.771 64.7188C366.35 70.9129 369.847 77.1767 373.154 83.4814L374.539 81.7158C371.559 75.2912 368.356 68.8393 365.03 62.3594C359.056 50.8097 353.124 38.1535 348.709 25H351.301ZM266 258.428C268.024 258.646 270.048 258.836 272.072 259C272.372 258.15 272.691 257.291 273 256.432C271.015 256.313 269.031 256.17 267.049 256C266.691 256.818 266.348 257.623 266 258.428ZM391 201C390.297 202.986 389.621 204.972 388.701 206.948C371.426 244.696 322.754 258.165 275.934 255.779C275.63 256.657 275.308 257.549 275.014 258.427H275C322.009 261.948 370.36 249.574 387.254 211.968L387.502 211.407C388.966 208.046 390.136 204.563 391 201ZM258 257.215C259.968 257.501 261.951 257.763 263.951 258C264.286 257.224 264.66 256.42 265 255.635C263.036 255.449 261.082 255.237 259.141 255L258 257.215ZM251 256.033C251.32 256.097 251.648 256.184 251.963 256.247C253.309 256.513 254.661 256.764 256.016 257C256.339 256.283 256.663 255.566 257 254.84C256.114 254.704 255.223 254.577 254.341 254.427C253.595 254.304 252.837 254.132 252.087 254L251 256.033ZM244.134 252C243.75 252.611 243.379 253.251 243 253.872C244.626 254.246 246.271 254.64 247.928 255C248.285 254.313 248.638 253.626 249 252.948C247.378 252.64 245.76 252.322 244.134 252ZM235.018 252.802H235C236.627 253.227 238.241 253.606 239.886 254C240.26 253.333 240.626 252.661 241 252.004C239.4 251.652 237.808 251.363 236.208 251C235.807 251.594 235.414 252.198 235.018 252.802ZM269 253.561C270.729 253.735 272.458 253.881 274.188 254C274.46 253.101 274.736 252.196 275 251.297C273.31 251.223 271.632 251.119 269.964 251C269.635 251.863 269.314 252.717 269 253.561ZM390.986 195C390.257 197.027 389.518 199.058 388.632 201.075C370.426 240.067 321.379 252.292 277.923 251.188C277.595 252.052 277.3 252.91 277 253.769C322.903 255.957 370.375 242.8 387.164 206.099C387.312 205.739 387.469 205.383 387.626 205.022C389.015 201.777 390.143 198.425 391 195H390.986ZM261 252.355C262.689 252.599 264.385 252.813 266.086 253C266.395 252.175 266.682 251.355 267 250.5C265.337 250.35 263.682 250.19 262.05 250C261.693 250.795 261.344 251.575 261 252.355ZM228 251.113C229.614 251.406 231.196 251.714 232.811 252C233.207 251.584 233.594 251.15 234 250.742C232.423 250.505 230.874 250.252 229.307 250C228.873 250.371 228.429 250.742 228 251.113ZM253 251.145C253.503 251.234 254.01 251.358 254.513 251.442C255.669 251.646 256.803 251.821 257.955 252C258.293 251.249 258.649 250.478 259 249.712C258.36 249.632 257.705 249.557 257.069 249.468C256.109 249.333 255.13 249.144 254.165 249C253.778 249.711 253.387 250.418 253 251.145ZM245.002 249.993H245V249.998C245.001 249.997 245.001 249.995 245.002 249.993C246.619 250.322 248.236 250.677 249.848 251C250.23 250.253 250.613 249.537 251 248.806C249.406 248.53 247.816 248.276 246.217 248C245.814 248.659 245.408 249.323 245.002 249.993ZM221 249.062L225.753 250C226.172 249.598 226.581 249.188 227 248.795C225.447 248.527 223.879 248.268 222.336 248C221.887 248.356 221.444 248.699 221 249.062ZM239.271 248C238.851 248.42 238.439 248.859 238.019 249.286H238C239.603 249.545 241.187 249.753 242.804 250C243.201 249.525 243.598 249.058 244 248.588C242.421 248.392 240.851 248.212 239.271 248ZM215.123 247C214.746 247.329 214.373 247.668 214 248.012L214.741 248.203C215.781 248.47 216.856 248.733 217.899 249C218.268 248.609 218.632 248.246 219 247.859L218.465 247.74L215.123 247ZM263 248.504C264.651 248.693 266.317 248.858 267.999 249C268.318 248.129 268.664 247.225 268.997 246.343L269 246.344V246.338C268.999 246.34 268.998 246.341 268.997 246.343C267.359 246.256 265.736 246.142 264.129 246C263.75 246.835 263.361 247.686 263 248.504ZM271 248.717C272.694 248.838 274.4 248.932 276.118 249C276.414 248.032 276.695 247.074 277 246.117C275.332 246.101 273.682 246.064 272.041 246C271.696 246.904 271.336 247.824 271 248.717ZM390 189C389.222 191.105 388.417 193.215 387.412 195.315C369.315 233.068 321.245 246.186 278.926 246.407C278.625 247.255 278.305 248.106 278 248.949C320.593 249.884 368.301 237.95 385.963 200.312C386.217 199.787 386.449 199.262 386.681 198.737C388.038 195.582 389.148 192.326 390 189ZM232.306 246C231.867 246.382 231.438 246.796 231 247.19C232.581 247.459 234.138 247.736 235.725 248C236.148 247.551 236.572 247.107 237 246.667C235.424 246.449 233.872 246.222 232.306 246ZM256.246 245C255.826 245.766 255.42 246.489 255 247.277C255.676 247.381 256.358 247.524 257.034 247.622C257.977 247.759 258.952 247.874 259.885 248C260.239 247.212 260.636 246.374 261 245.569L259.801 245.46C258.621 245.334 257.426 245.142 256.246 245ZM207 245.941L210.869 247C211.246 246.629 211.623 246.286 212 245.92L208.106 245C207.739 245.305 207.367 245.631 207 245.941ZM224 246.13L227.916 247C228.277 246.572 228.639 246.14 229 245.717L225.132 245C224.753 245.37 224.379 245.75 224 246.13ZM249.286 245.004C248.854 245.48 248.427 245.937 248 246.425C249.598 246.606 251.201 246.819 252.8 247C253.203 246.461 253.597 245.944 254 245.425C252.426 245.287 250.861 245.15 249.286 245V245.004ZM218.169 244C217.775 244.363 217.394 244.693 217 245.062L218.732 245.48L220.906 246C221.268 245.598 221.634 245.173 222 244.776L218.169 244ZM241 245.39C242.587 245.611 244.158 245.783 245.745 246C246.166 245.484 246.576 244.997 246.996 244.494C246.997 244.494 246.999 244.495 247 244.495V244.491C246.999 244.492 246.997 244.493 246.996 244.494C245.44 244.326 243.899 244.181 242.344 244L241 245.39ZM201.851 244C201.566 244.134 201.281 244.292 201 244.43L204.12 245L205 244.49L201.851 244ZM234 244.27V244.274C235.296 244.51 236.579 244.755 237.879 245C238.251 244.495 238.628 244.038 239 243.558L235.151 243L234 244.27ZM194 243.373L197.131 244L197.961 243.521H198C196.945 243.342 195.889 243.175 194.795 243L194 243.373ZM211.914 243C211.611 243.152 211.307 243.321 211 243.49L214.111 244C214.414 243.807 214.705 243.591 215 243.412C213.973 243.27 212.946 243.138 211.914 243ZM227 243.216C228.278 243.483 229.571 243.739 230.858 244C231.239 243.528 231.619 243.079 232 242.613C230.722 242.409 229.42 242.21 228.151 242L227 243.216ZM258 243.623C258.837 243.692 259.749 243.793 260.517 243.85C261.285 243.906 262.068 243.951 262.841 244C263.207 243.424 263.589 242.852 264 242.252H263.559C262.142 242.191 260.71 242.077 259.288 242L258 243.623ZM265 243.793C266.635 243.876 268.289 243.948 269.948 244C270.295 243.381 270.641 242.749 270.997 242.118L271 242.119V242.115C270.999 242.116 270.998 242.117 270.997 242.118C269.387 242.098 267.802 242.048 266.216 242C265.811 242.6 265.391 243.209 265 243.793ZM278.996 242.008C277.355 242.035 275.719 242.057 274.088 242.046C273.72 242.679 273.353 243.313 273 243.935C274.671 243.978 276.352 244 278.045 244C278.363 243.339 278.682 242.673 278.996 242.008ZM388.991 183C388.162 185.228 387.259 187.452 386.182 189.666C368.296 226.146 322.826 240.193 280.921 241.598C280.614 242.403 280.307 243.204 280 244C321.058 243.616 367.352 230.859 384.75 194.617C386.52 190.881 387.942 186.993 389 183H388.991ZM189 242.308L191.426 243L192 242.583L189.507 242L189 242.308ZM205 242.444L208.116 243L209 242.444C207.96 242.302 206.919 242.142 205.874 242L205 242.444ZM251 242.55C252.325 242.698 253.646 242.856 254.972 243C255.312 242.437 255.66 241.846 256 241.297C254.704 241.198 253.409 241.108 252.113 241L251 242.55ZM278.996 242.008C278.997 242.008 278.999 242.008 279 242.008V242C278.999 242.003 278.997 242.005 278.996 242.008ZM199 241.367C199.801 241.57 200.607 241.778 201.408 242L202 241.513L199.534 241L199 241.367ZM221 241.571L223.256 241.885L224.08 242L225 241.34L221.911 241C221.61 241.184 221.301 241.388 221 241.571ZM237 241.381L240.866 242C241.244 241.473 241.622 240.945 242 240.43L238.191 240L237 241.381ZM245.176 240C244.784 240.482 244.395 240.989 244.003 241.496H244V241.501C244.001 241.499 244.002 241.498 244.003 241.496C245.306 241.699 246.632 241.827 247.939 242C248.293 241.466 248.651 240.88 249 240.371C247.718 240.249 246.453 240.132 245.176 240ZM215 240.516L218.097 241L219 240.368L215.884 240C215.584 240.177 215.304 240.334 215 240.516ZM209 239.452L211.379 240L212 239.397L209.6 239L209 239.452ZM225 239.611L228.068 240L229 239.275L225.913 239L225 239.611ZM231 239.654L234.075 240L235 239.246L232.151 239.024L231.938 239L231 239.654ZM273 238C271.559 238.048 270.22 238.048 269.007 238.048C268.654 238.68 268.34 239.255 268 239.869C269.36 239.908 270.703 239.991 272.075 239.991V240C272.385 239.333 272.682 238.68 273 238ZM389 177C388.121 179.296 387.15 181.589 386.012 183.871H386.017C365.204 225.721 313.17 235.541 282.925 237.602C282.874 237.736 282.815 237.866 282.764 237.995C282.495 238.671 282.259 239.329 282 240C323.056 238.403 367.22 224.513 384.582 188.862C386.405 185.048 387.884 181.078 389 177ZM219.597 238C219.417 238.177 219.196 238.372 219 238.543L221.345 239L222 238.311L219.597 238ZM248.187 237C247.985 237.278 247.763 237.55 247.576 237.81C247.389 238.069 247.192 238.353 247 238.613V238.625C248.306 238.77 249.608 238.867 250.914 239L252 237.224C250.722 237.157 249.464 237.079 248.187 237ZM254.873 237.384L254.009 238.674H254C255.309 238.79 256.619 238.895 257.928 239L259 237.132C257.714 237.09 256.427 237.058 255.141 237C255.05 237.131 254.959 237.252 254.873 237.384ZM262.034 237.116C261.7 237.641 261.343 238.221 261 238.764C261.836 238.819 262.677 238.907 263.514 238.953C264.002 238.999 264.508 238.977 265.001 239C265.331 238.378 265.657 237.765 266 237.125C264.706 237.106 263.403 237.037 262.109 237L262.034 237.116ZM280 237C278.578 237.074 277.229 237.125 275.939 237.168L275.914 237.215C275.598 237.825 275.307 238.401 275 239C276.392 238.996 277.784 238.988 279.188 238.957C279.466 238.299 279.718 237.658 280 237ZM241.952 237.011C241.636 237.266 241.316 237.504 241 237.752C242.019 237.835 243.058 237.921 244.098 238L245 237.133L241.952 237V237.011ZM229 236.649L231.372 237L232 236.188L229.628 236L229 236.649ZM235 236.712L238.116 237L239 236.158L236.988 236.056L235.936 236C235.613 236.246 235.304 236.47 235 236.712ZM244 234.853L247.065 235C247.36 234.673 247.673 234.353 247.986 234.026C247.991 234.026 247.995 234.027 248 234.027V234.014C247.996 234.018 247.991 234.022 247.986 234.026C246.981 234.022 245.949 234.023 244.935 234L244 234.853ZM251.965 234.011C251.641 234.313 251.32 234.62 251 234.903C252.023 234.944 253.041 234.963 254.068 235C254.372 234.653 254.692 234.343 255 234H251.965V234.011ZM262 233C260.729 233.018 259.458 233.072 258.188 233.072C257.793 233.648 257.399 234.254 257.01 234.86H257C258.286 234.915 259.577 234.958 260.872 235C261.246 234.327 261.626 233.673 262 233ZM268 233C266.729 233.062 265.453 233.036 264.177 233.062H264.182C263.793 233.677 263.394 234.282 263 234.902C263.972 234.923 264.978 235 265.927 235H266.923C267.279 234.333 267.644 233.667 268 233ZM275 233C273.59 233.084 272.271 233.15 271.085 233.198L270 234.991V235C271.245 234.991 272.587 234.969 274.021 234.921C274.346 234.278 274.675 233.639 275 233ZM282 233C280.602 233.113 279.279 233.203 278.007 233.282C277.67 233.854 277.333 234.429 277 235C278.304 234.959 279.675 234.895 281.092 234.823C281.389 234.21 281.703 233.613 282 233ZM388.991 168C387.861 171.388 386.498 174.694 384.911 177.894C364.387 218.27 313.924 229.543 284.973 232.659C284.65 233.439 284.318 234.215 284 235C313.768 232.803 363.547 222.965 383.5 182.833C385.859 178.1 387.703 173.127 389 168H388.991ZM232 234.106L234.399 234.217L234.979 233.811C234.986 233.811 234.993 233.811 235 233.812V233.797L234.979 233.811C234.161 233.806 233.348 233.797 232.51 233.783C232.352 233.885 232.178 234 232 234.106ZM239 233.814L241.324 234L242 233.025L241.6 233H239.656C239.438 233.269 239.219 233.552 239 233.814ZM242.628 230.853L242 231.249H244.377C244.586 231.088 244.791 230.912 245 230.751L242.628 230.853ZM248.725 230.153C248.482 230.432 248.239 230.716 248 231H250.316C250.543 230.67 250.77 230.324 251 230L248.725 230.153ZM254.979 230.108C254.657 230.41 254.327 230.699 254 231H257.093L258 230L254.979 230.108ZM260.973 230.142L260 231L263.101 230.965C263.403 230.643 263.697 230.322 264 230C262.975 230.045 261.976 230.1 260.973 230.142ZM271 229C269.991 229.095 268.981 229.159 267.972 229.243C267.644 229.818 267.324 230.414 267 231H267.004C267.909 230.968 268.823 230.969 269.725 230.932H270.115C270.414 230.288 270.697 229.639 271 229ZM277 229C275.637 229.118 274.378 229.219 273.159 229.311H273.164C272.778 229.875 272.382 230.44 272 231C273.249 230.947 274.567 230.881 276.009 230.794C276.341 230.194 276.658 229.595 277 229ZM283.994 228C282.637 228.139 281.328 228.263 280.052 228.379C279.701 228.919 279.346 229.46 279 230C280.297 229.917 281.671 229.816 283.083 229.703C283.385 229.126 283.687 228.566 283.994 228ZM388.942 161.16C387.709 164.71 386.231 168.169 384.515 171.512C364.227 210.526 316.675 223.497 286.926 227.803C286.606 228.53 286.306 229.272 286 230C314.768 226.737 363.296 215.401 383.094 176.471C385.579 171.589 387.538 166.456 388.942 161.16ZM252.643 227.3L252 228L254.316 227.866C254.539 227.573 254.772 227.293 255 227L252.643 227.3ZM258.724 227.228C258.481 227.481 258.242 227.742 258 228L260.312 227.873C260.543 227.594 260.77 227.288 261 227L258.724 227.228ZM263.986 226.24C263.671 226.49 263.335 226.747 263 227C264.006 226.961 265.027 226.915 266.014 226.873C266.354 226.584 266.679 226.302 267 226.013V226C266.009 226.071 265.017 226.159 263.986 226.24ZM270.038 225.396C269.692 225.93 269.341 226.465 269 227H269.005C270.015 226.92 271.039 226.871 272.045 226.802C272.359 226.203 272.682 225.599 273 225C272.013 225.139 271.025 225.262 270.038 225.396ZM279 225C277.982 225.151 276.946 225.303 275.967 225.433C275.637 225.952 275.325 226.476 275 227H275.004C276.005 226.905 277.054 226.81 278.133 226.68C278.415 226.121 278.71 225.558 279 225ZM286 224C284.97 224.145 283.909 224.32 282.904 224.462L282 226C283.042 225.886 284.119 225.762 285.231 225.628C285.493 225.088 285.734 224.536 286 224ZM387.921 156.014C386.713 159.212 385.315 162.334 383.732 165.364C363.986 202.379 320.161 217.052 288.926 222.872C288.606 223.58 288.305 224.292 288 225C317.328 220.572 362.829 207.705 382.32 170.292C384.666 165.786 386.569 161.063 388 156.189L387.931 156L387.921 156.014ZM261.742 223.345L261 224L263.326 223.781C263.552 223.507 263.774 223.254 264 223L261.742 223.345ZM270 223C269.259 223.095 268.517 223.201 267.78 223.32C267.522 223.549 267.259 223.768 267 224C267.763 223.933 268.522 223.856 269.289 223.789C269.526 223.532 269.763 223.267 270 223.014V223ZM272.792 221.537L272 223C272.752 222.874 273.504 222.775 274.248 222.644L275 221L272.792 221.537ZM282 220C281.011 220.183 279.998 220.38 279.028 220.545C278.689 221.032 278.339 221.518 278 222H278.005C279.028 221.871 280.017 221.75 281.079 221.599L282 220ZM288 219C286.984 219.174 285.963 219.382 284.961 219.552C284.644 220.036 284.313 220.52 284 221C285.039 220.856 286.06 220.724 287.136 220.565C287.416 220.04 287.715 219.526 288 219ZM385.834 153C384.784 155.412 383.615 157.825 382.312 160.224C363.584 194.639 324.43 211.092 290.921 218.98C290.612 219.655 290.299 220.325 290 221C320.447 215.075 362.078 200.605 380.935 165.131C382.921 161.356 384.615 157.434 386 153.397C385.949 153.263 385.894 153.134 385.844 153H385.834ZM270.509 219.38C270.341 219.572 270.172 219.795 270 220L271.507 219.709L272 219L270.509 219.38ZM275.844 217.643L275 219C275.743 218.836 276.486 218.691 277.224 218.516L278 217L275.844 217.643ZM284 216C283.319 216.2 282.667 216.414 281.978 216.604L281.773 216.638C281.51 217.095 281.263 217.524 281 218L283.277 217.51C283.516 217.005 283.758 216.505 284 216ZM286 216.984V217C286.004 216.994 286.008 216.988 286.013 216.981C286.008 216.982 286.004 216.984 286 216.984ZM290 215C289.027 215.204 288.013 215.393 287.029 215.598C286.669 216.059 286.348 216.52 286.013 216.981C287.038 216.813 288.074 216.63 289.125 216.466C289.418 215.975 289.707 215.487 290 215ZM384.685 149C383.864 150.736 382.987 152.472 382.009 154.203C366.644 181.439 336.67 201.542 292.881 214.089C292.579 214.72 292.297 215.365 292 216C324.803 208.103 362.53 191.983 380.617 159.074C382.263 156.038 383.726 152.908 385 149.7C384.898 149.461 384.791 149.235 384.685 149ZM278.609 214.367C278.412 214.579 278.202 214.784 278 215C278.485 214.901 278.967 214.809 279.448 214.707C279.625 214.467 279.819 214.233 280 214L278.609 214.367ZM284.469 212.551L283.837 212.745L283 214C283.75 213.806 284.49 213.601 285.234 213.401L286 212.037V212C285.481 212.184 284.993 212.362 284.469 212.551ZM289.819 210.655V210.646C289.52 211.095 289.258 211.543 289 212C289.755 211.801 290.532 211.606 291.301 211.403C291.54 210.938 291.761 210.461 292 210L289.819 210.655ZM382.5 145C381.935 146.052 381.426 147.104 380.815 148.156C365.594 174.479 337.419 194.526 294.843 209.286C294.565 209.86 294.278 210.421 294 211C335.943 198.638 364.687 179.174 379.45 152.984C380.76 150.669 381.931 148.349 383 146.024C382.838 145.68 382.667 145.34 382.5 145ZM287.475 208.152L286.575 208.4L286 209L287.501 208.639L288 208L287.475 208.152ZM291.814 206.762C291.55 207.176 291.275 207.586 291 208C291.748 207.778 292.508 207.561 293.251 207.335C293.499 206.887 293.752 206.448 294 206L291.814 206.762ZM380.406 141C380.202 141.349 380.036 141.697 379.827 142.046C360.716 174.14 325.179 192.841 296.747 204.509L296.732 204.477C296.482 204.972 296.232 205.468 296 206C336.731 191.547 363.799 172.14 378.468 146.854C379.381 145.281 380.188 143.702 381 142.119C380.805 141.748 380.601 141.376 380.406 141ZM294.595 202.799L294 204L295.5 203.255L296 202L294.595 202.799ZM378.297 137C359.906 166.499 329.046 185.352 299.621 199.705C299.41 200.163 299.202 200.574 299 201C326.365 189.439 359.598 171.213 377.621 140.749C378.122 139.921 378.54 139.087 379 138.259C378.756 137.838 378.531 137.421 378.297 137ZM376.145 133.014C357.492 161.217 328.65 180.41 301.518 196.021C301.347 196.35 301.166 196.67 301 197C329.736 182.611 359.37 163.752 376.875 134.699C376.921 134.63 376.958 134.55 377 134.48C376.723 133.984 376.431 133.492 376.145 133V133.014ZM374.077 130C355.162 156.634 327.934 175.827 304.272 191.483L304 192C330.172 176.892 357.469 158.304 375 131.496C374.691 130.998 374.386 130.499 374.077 130ZM371.931 126C353.513 150.762 329.134 169.961 307 187C329.852 171.719 355.3 153.019 373 127.666C372.648 127.111 372.297 126.551 371.936 126H371.931ZM368.938 122C352.177 143.865 331.486 162.405 313 179C332.968 163.347 353.892 145.62 370 123.575L368.962 122.009L368.938 122ZM366.852 118C353.108 135.717 337.707 151.684 322.696 167.185C321.778 168.138 320.932 169.055 320 170C336.375 155.126 353.692 138.629 368 119.682C367.614 119.12 367.237 118.558 366.852 118ZM388.942 161.16C388.961 161.107 388.981 161.054 389 161H388.986C388.972 161.054 388.957 161.107 388.942 161.16ZM363.842 114C354.087 126.617 343.858 138.727 333.83 150.532C330.808 154.083 327.908 157.541 325 161C338.707 146.695 352.569 131.902 365 115.651L363.842 114ZM361.808 111C358.138 115.73 354.463 120.427 350.85 125.041C343.925 133.886 336.888 142.901 330 152C330.643 151.251 331.248 150.539 331.9 149.785C342.276 137.774 352.918 125.452 363 112.613C362.606 112.074 362.208 111.536 361.808 111ZM357.896 107C349.724 118.076 341.71 129.399 334 141C338.618 134.93 343.253 128.887 347.844 122.944C351.522 118.177 355.263 113.331 359 108.444C358.637 107.955 358.269 107.457 357.896 107ZM380 134.859C380.197 135.241 380.387 135.623 380.58 136C380.719 135.724 380.87 135.453 381 135.177C380.819 134.781 380.635 134.391 380.454 134C380.303 134.285 380.16 134.57 380 134.859ZM378.479 130C378.461 130.029 378.433 130.059 378.433 130.092C378.293 130.35 378.139 130.591 378 130.849C378.196 131.231 378.389 131.613 378.582 132L379 131.14L378.479 130ZM375.985 126C375.672 126.439 375.348 126.874 375 127.308C375.406 127.87 375.788 128.432 376.159 129C376.455 128.561 376.716 128.116 377 127.677C376.664 127.12 376.333 126.536 375.985 126ZM380 127.737C380.221 128.158 380.419 128.579 380.641 129C380.77 128.746 380.876 128.493 381 128.239C380.811 127.828 380.609 127.411 380.415 127L380 127.737ZM373.95 122.024C373.639 122.463 373.317 122.892 373 123.301C373.377 123.867 373.759 124.434 374.131 125C374.417 124.576 374.719 124.163 375 123.739C374.653 123.158 374.302 122.576 373.95 122V122.024ZM378.469 123C378.306 123.287 378.162 123.574 378 123.86C378.196 124.239 378.402 124.618 378.594 125C378.727 124.742 378.871 124.48 379 124.223C378.838 123.832 378.653 123.416 378.469 123ZM375.958 119C375.728 119.314 375.477 119.609 375.236 119.913L375 120.222C375.392 120.811 375.759 121.395 376.145 122C376.44 121.576 376.711 121.152 377 120.729C376.663 120.151 376.301 119.55 375.958 119ZM380 120.918C380.187 121.271 380.406 121.629 380.557 122L381 121.1C380.846 120.733 380.691 120.366 380.528 120C380.358 120.306 380.175 120.612 380 120.918ZM371 119.422L372.063 121C372.363 120.55 372.691 120.128 373 119.654C372.667 119.1 372.344 118.55 372.002 118H371.998C371.656 118.474 371.328 118.953 371 119.422ZM369.039 115C368.677 115.459 368.323 115.918 368 116.427C368.345 116.95 368.694 117.473 369.034 118C369.362 117.528 369.681 117.032 370 116.573C369.685 116.05 369.362 115.523 369.039 115ZM373.982 115C373.662 115.443 373.326 115.871 373 116.313V116.338C373.366 116.889 373.753 117.444 374.135 118C374.318 117.725 374.527 117.498 374.705 117.232C374.812 117.056 374.893 116.898 375 116.741C374.634 116.161 374.328 115.58 373.982 115ZM378.506 115C378.332 115.466 378.18 115.932 378 116.393C378.177 116.928 378.345 117.464 378.519 118L379 116.607C378.845 116.072 378.667 115.536 378.506 115ZM366 112.475L366.998 114H367.014C367.348 113.532 367.674 113.061 368 112.576C367.674 112.049 367.363 111.522 367.033 111C366.684 111.484 366.35 111.99 366 112.475ZM371 112.413C371.347 112.95 371.689 113.487 372.035 114C372.354 113.548 372.686 113.129 373 112.658C372.677 112.102 372.339 111.551 372.007 111C371.67 111.471 371.342 111.942 371 112.413ZM376.098 111C375.874 111.304 375.684 111.603 375.454 111.902C375.31 112.093 375.149 112.273 375 112.464C375.333 112.974 375.696 113.485 376.023 114C376.362 113.526 376.667 113.052 377 112.572C376.672 112.031 376.402 111.515 376.098 111ZM380 112.837C380.191 113.226 380.386 113.611 380.573 114L380.581 113.991C380.723 113.728 380.87 113.469 381 113.201L380.488 112L380 112.837ZM382.524 111H382.534C382.533 110.997 382.531 110.994 382.529 110.99C382.528 110.993 382.526 110.997 382.524 111ZM382.554 109C382.379 109.291 382.175 109.582 382 109.873C382.173 110.245 382.361 110.618 382.529 110.99C382.688 110.698 382.837 110.405 383 110.112C382.854 109.742 382.704 109.371 382.554 109ZM364.054 107C363.696 107.518 363.361 108.06 363 108.553C363.327 109.037 363.647 109.52 363.97 110C364.319 109.499 364.654 108.986 365 108.481L364.068 107H364.054ZM368.004 108.441H368C368.34 108.961 368.706 109.48 369.046 110L370 108.646C369.676 108.096 369.374 107.546 369.046 107L368.004 108.441ZM374.095 107C373.736 107.481 373.363 107.967 373 108.425V108.447C373.334 108.96 373.664 109.496 373.993 110C374.347 109.505 374.651 109.01 375 108.516C374.705 108.007 374.39 107.508 374.095 107ZM378.263 108.435L378 108.871C378.183 109.243 378.352 109.62 378.524 110C378.683 109.72 378.849 109.435 379 109.151C378.842 108.768 378.679 108.384 378.514 108C378.433 108.144 378.349 108.289 378.263 108.435ZM371.004 105.45H371C371.327 105.967 371.662 106.484 371.989 107C372.32 106.531 372.669 106.079 373 105.609C372.695 105.071 372.402 104.534 372.093 104C371.736 104.486 371.365 104.964 371.004 105.45ZM377.078 104C376.707 104.477 376.371 104.949 376 105.421V105.426C376.359 105.939 376.673 106.451 377.003 107L378 105.62C377.704 105.077 377.38 104.543 377.078 104ZM380.55 105.015C380.374 105.305 380.183 105.581 380 105.876C380.172 106.251 380.33 106.629 380.502 107C380.663 106.712 380.843 106.424 381 106.136L380.55 105.015ZM361.111 103C360.741 103.533 360.37 104.095 360 104.653C360.307 105.1 360.608 105.55 360.915 106C361.278 105.471 361.63 104.933 362 104.4L361.985 104.417C361.685 103.929 361.4 103.45 361.111 103ZM366.016 104.515H366C366.338 105.007 366.641 105.504 366.975 106L368 104.532C367.697 104.019 367.387 103.509 367.08 103L366.016 104.515ZM380.55 105.015C380.55 105.014 380.551 105.013 380.552 105.012L380.544 105L380.55 105.015ZM363 101.603C363.309 102.067 363.618 102.532 363.923 103L365 101.472H364.985C364.677 100.983 364.412 100.493 364.13 100C363.753 100.534 363.377 101.064 363 101.603ZM369.031 101.517H369C369.305 102.011 369.607 102.506 369.939 103C370.288 102.501 370.652 102.015 371 101.517C370.714 101.01 370.417 100.507 370.127 100C369.764 100.508 369.399 101.014 369.031 101.517ZM374.746 100.466C374.508 100.792 374.244 101.09 374 101.397V101.421C374.335 101.957 374.649 102.497 374.984 103C375.33 102.534 375.655 102.068 376 101.603C375.701 101.067 375.411 100.531 375.106 100L374.746 100.466ZM378 101.416C378.158 101.946 378.32 102.47 378.476 103C378.646 102.539 378.832 102.077 379 101.621C378.873 101.081 378.705 100.524 378.562 100L378 101.416ZM382 101.942C382.157 102.292 382.3 102.651 382.457 103C382.645 102.689 382.817 102.368 383 102.043C382.868 101.694 382.742 101.344 382.604 101H382.594C382.391 101.316 382.193 101.636 382 101.942ZM366 97.5938C366.3 98.0638 366.605 98.5299 366.901 99L368 97.4824H367.97C367.685 96.9924 367.407 96.498 367.141 96L366 97.5938ZM371.026 97.4424H371C371.32 97.9587 371.64 98.4794 371.974 99C372.324 98.5178 372.649 98.0398 373 97.5576C372.727 97.037 372.424 96.5206 372.134 96C371.77 96.4821 371.394 96.9603 371.026 97.4424ZM376 97.4111C376.316 97.9283 376.61 98.45 376.91 99C377.281 98.5298 377.646 98.0591 378 97.5889C377.706 97.0624 377.444 96.5312 377.161 96L376 97.4111ZM381.007 97.9385H381C381.153 98.2896 381.31 98.6451 381.471 99C381.635 98.6718 381.818 98.3469 382 98.0225C381.876 97.6829 381.737 97.3396 381.609 97C381.416 97.3129 381.204 97.6256 381.007 97.9385ZM379 94.3965C379.308 94.931 379.586 95.4655 379.9 96C380.269 95.5397 380.638 95.0795 381 94.6191C380.734 94.0795 380.48 93.5396 380.208 93L379 94.3965ZM369 93.5039C369.307 93.9972 369.598 94.5027 369.901 95C370.265 94.5149 370.636 94.0378 371 93.5527H370.976C370.689 93.0352 370.41 92.5175 370.144 92C369.76 92.4973 369.38 93.0026 369 93.5039ZM374.028 93.4785H374C374.297 93.9857 374.599 94.4928 374.919 95C375.281 94.5146 375.638 94.0289 376 93.5479C375.74 93.0319 375.457 92.516 375.192 92C374.803 92.4941 374.418 92.9888 374.028 93.4785ZM383.01 93.958H383C383.146 94.3053 383.278 94.6571 383.438 95L384 94.0557C383.882 93.7038 383.76 93.3519 383.642 93C383.425 93.3207 383.227 93.6373 383.01 93.958ZM377.016 90.4639H377C377.285 90.9759 377.57 91.4698 377.865 92C378.242 91.5197 378.629 91.0166 379 90.5635C378.74 90.0423 378.486 89.5211 378.231 89C377.829 89.4894 377.423 89.979 377.016 90.4639ZM372 89.4854C372.297 89.9874 372.576 90.4939 372.873 91C373.25 90.5143 373.623 90.0246 374 89.543H373.975C373.708 89.0288 373.449 88.5101 373.203 88C372.799 88.4911 372.398 88.9862 372 89.4854ZM382.007 89.9727H382C382.138 90.3163 382.277 90.6526 382.422 91C382.617 90.671 382.805 90.3458 383 90.0205C382.887 89.6767 382.763 89.3401 382.646 89L382.007 89.9727ZM379 86.4375C379.278 86.9503 379.544 87.4824 379.816 88C380.219 87.5208 380.598 87.0417 381 86.5625C380.763 86.0449 380.538 85.5176 380.302 85L379 86.4375ZM384.008 87.0039H384C384.122 87.3372 384.248 87.6586 384.374 88C384.594 87.6707 384.797 87.3372 385 87.0039C384.898 86.6666 384.789 86.3333 384.691 86L384.008 87.0039ZM375 85.4873C375.284 85.9928 375.56 86.4945 375.84 87L377 85.5576L376.973 85.5498C376.72 85.036 376.49 84.5179 376.26 84L375 85.4873ZM378 82.4746C378.27 82.9802 378.529 83.4901 378.794 84C379.196 83.5243 379.598 83.0357 380 82.5557H379.985C379.755 82.0371 379.524 81.5271 379.289 81L378 82.4746ZM383 82.5205C383.123 83.0154 383.245 83.4898 383.364 84C383.581 83.5102 383.792 83.0201 384 82.5303C383.901 82.0202 383.808 81.5101 383.705 81L383 82.5205ZM381 78.4863C381.242 78.9863 381.473 79.4955 381.71 80L383 78.5176H382.983C382.785 78.0087 382.596 77.4998 382.397 77L381 78.4863ZM385 78.9883C385.114 79.3229 385.223 79.6615 385.333 80C385.553 79.6811 385.78 79.358 386 79.0352H385.996C385.903 78.6927 385.825 78.3424 385.744 78C385.496 78.3307 385.248 78.6536 385 78.9883ZM384 74.4727C384.102 74.9784 384.206 75.509 384.317 76L385 74.5273H384.993C384.907 73.9971 384.819 73.5057 384.746 73C384.499 73.4909 384.251 73.9817 384 74.4727ZM388 75.0215C388.094 75.3492 388.192 75.6723 388.286 76C388.531 75.6628 388.76 75.3304 389 74.9932L388.989 75.002C388.927 74.6602 388.87 74.3277 388.812 74L388 75.0215ZM387 70.4834C387.094 70.9852 387.18 71.4982 387.274 72L388 70.5107H387.992C387.928 70.009 387.861 69.5017 387.801 69L387 70.4834ZM390 67.0127C390.071 67.3388 390.136 67.6696 390.212 68L391 66.9824H390.99C390.948 66.6564 390.906 66.3477 390.868 66L390 67.0127Z" fill="#BCBCBC"/>
</g>
<ellipse cx="176.385" cy="93.2492" rx="1.30064" ry="1.29936" fill="white"/>
<ellipse cx="196.385" cy="192.249" rx="1.30064" ry="1.29936" fill="white"/>
</g>
</g>
<path d="M287.8 108.031C289.493 106.411 292.008 105.433 294.361 105.949C295.399 106.142 296.299 106.783 296.82 107.702C297.284 108.613 297.42 109.657 297.205 110.657C296.776 112.553 295.367 114.076 293.509 114.649C291.705 115.224 289.737 114.56 288.652 113.009C287.896 111.939 287.623 110.602 287.9 109.322C287.521 108.991 287.476 108.417 287.8 108.031ZM293.286 107.655C292.167 107.634 291.064 107.933 290.109 108.517C290.158 108.794 290.095 109.08 289.933 109.309C289.901 109.357 289.843 109.448 289.843 109.469C289.788 109.575 289.742 109.687 289.706 109.802C289.689 109.859 289.676 109.918 289.666 109.977C289.61 110.309 289.622 110.65 289.702 110.976C289.722 111.049 289.746 111.126 289.77 111.199C289.811 111.325 289.859 111.448 289.915 111.568C289.99 111.713 290.075 111.853 290.168 111.987C290.225 112.064 290.281 112.14 290.398 112.273C290.51 112.384 290.628 112.489 290.751 112.587C290.831 112.66 290.923 112.719 291.024 112.76C291.239 112.886 291.478 112.966 291.726 112.996C292.324 113.081 292.934 112.979 293.473 112.706C294.018 112.434 294.491 112.034 294.85 111.542C295.214 111.053 295.43 110.469 295.472 109.861C295.518 109.301 295.361 108.744 295.029 108.291C294.558 107.852 293.929 107.623 293.286 107.655Z" fill="#FBA321"/>
<path d="M73.2168 191.221C74.9103 189.601 77.4252 188.623 79.7773 189.139C80.8154 189.332 81.7154 189.973 82.2363 190.892C82.701 191.803 82.8371 192.847 82.6221 193.847C82.1929 195.743 80.7834 197.265 78.9258 197.839C77.1221 198.414 75.1541 197.749 74.0683 196.198C73.3129 195.129 73.0401 193.792 73.3164 192.512C72.9373 192.18 72.8931 191.606 73.2168 191.221ZM78.7031 190.845C77.5835 190.824 76.4808 191.123 75.5254 191.707C75.5748 191.984 75.5119 192.269 75.3496 192.499C75.3181 192.547 75.2602 192.638 75.2598 192.658C75.2051 192.765 75.1592 192.877 75.123 192.991C75.1063 193.049 75.0928 193.108 75.083 193.167C75.027 193.499 75.039 193.839 75.1191 194.166C75.1391 194.239 75.1632 194.316 75.1865 194.389C75.2275 194.515 75.2757 194.638 75.332 194.758C75.4066 194.903 75.4913 195.043 75.5849 195.177C75.6415 195.253 75.6982 195.33 75.8144 195.463C75.9264 195.573 76.045 195.678 76.168 195.776C76.2477 195.85 76.34 195.908 76.4404 195.949C76.6556 196.076 76.8948 196.156 77.1426 196.186C77.7407 196.271 78.351 196.169 78.8896 195.896C79.4352 195.623 79.9075 195.224 80.2666 194.731C80.6305 194.242 80.8464 193.659 80.8887 193.051C80.9353 192.491 80.7783 191.933 80.4463 191.48C79.9748 191.042 79.3461 190.813 78.7031 190.845Z" fill="#FBA321"/>
<path d="M244.371 54.2896C245.439 53.2483 247.029 52.6259 248.517 52.9586C249.171 53.08 249.738 53.4844 250.066 54.0631C250.364 54.6434 250.45 55.3104 250.307 55.9468C250.037 57.1433 249.149 58.1045 247.978 58.4683C246.838 58.8323 245.593 58.4136 244.906 57.4342C244.43 56.7583 244.258 55.9132 244.434 55.1051C244.193 54.8963 244.166 54.5329 244.371 54.2896ZM247.824 54.0435C247.121 54.0331 246.429 54.2225 245.828 54.5894C245.859 54.7636 245.819 54.9434 245.718 55.0885C245.764 55.0186 245.658 55.1681 245.658 55.1881C245.627 55.2563 245.599 55.3267 245.575 55.398C245.549 55.4377 245.549 55.4739 245.549 55.5103C245.513 55.7192 245.521 55.9335 245.572 56.1392C245.586 56.1857 245.615 56.2324 245.615 56.2789C245.641 56.3582 245.671 56.4365 245.705 56.5123C245.754 56.6039 245.809 56.6925 245.868 56.7779C245.912 56.8403 245.96 56.9006 246.011 56.9576C246.084 57.0275 246.158 57.094 246.234 57.1539C246.285 57.2007 246.343 57.2385 246.407 57.2642C246.543 57.3444 246.693 57.3952 246.85 57.4136C247.228 57.4688 247.614 57.4053 247.954 57.231C248.299 57.06 248.597 56.8075 248.822 56.4957C249.048 56.1892 249.18 55.8237 249.202 55.4439C249.234 55.0883 249.134 54.7332 248.922 54.4459C248.625 54.1702 248.229 54.0252 247.824 54.0435Z" fill="#1EFA84"/>
<path d="M30.1376 134.421C31.2056 133.38 32.7959 132.757 34.2831 133.09C34.9373 133.211 35.5044 133.616 35.8329 134.194C36.1306 134.775 36.216 135.442 36.0731 136.078C35.8035 137.275 34.9152 138.236 33.744 138.6C32.6043 138.964 31.3599 138.545 30.6727 137.566C30.1963 136.89 30.0248 136.045 30.2001 135.236C29.9597 135.028 29.9323 134.664 30.1376 134.421ZM33.5907 134.175C32.8871 134.165 32.1951 134.354 31.5946 134.721C31.6258 134.895 31.5857 135.075 31.4843 135.22C31.5308 135.15 31.4247 135.3 31.4247 135.319C31.3931 135.388 31.3654 135.458 31.3417 135.529C31.3153 135.569 31.3153 135.605 31.3153 135.642C31.2794 135.851 31.2875 136.065 31.3388 136.271C31.352 136.317 31.3816 136.364 31.3817 136.41C31.407 136.49 31.437 136.568 31.4716 136.644C31.5207 136.735 31.5753 136.824 31.6346 136.909C31.6788 136.972 31.7263 137.032 31.7772 137.089C31.8504 137.159 31.9243 137.225 32.0009 137.285C32.0514 137.332 32.1099 137.37 32.1737 137.396C32.3091 137.476 32.4599 137.527 32.6161 137.545C32.9943 137.6 33.3804 137.537 33.7206 137.362C34.0653 137.191 34.3632 136.939 34.5888 136.627C34.8141 136.321 34.9464 135.955 34.9686 135.575C35.0006 135.22 34.9004 134.865 34.6884 134.577C34.3911 134.302 33.9957 134.157 33.5907 134.175Z" fill="#1EFA84"/>
<path d="M292.959 193.133L292.263 203.158L255.504 183.854L274.459 186.467L292.959 193.133V193.133Z" fill="#16904E"/>
<path d="M292.419 194.68L297.088 187.397C297.29 187.084 297.314 186.688 297.151 186.353C296.988 186.018 296.661 185.793 296.29 185.759L249.185 181.457L283.871 208.675C284.12 208.87 284.444 208.945 284.754 208.878C285.063 208.811 285.328 208.61 285.475 208.329L290.849 198.081L259.206 185.463L259.809 184.711L292.419 194.68Z" fill="#F9A41E"/>
<path d="M313.399 195.855C316.851 195.803 320.174 197.171 322.59 199.639C322.947 200.014 323.282 200.41 323.592 200.825C327.853 200.604 332.506 202.756 335.62 205.25C340.295 208.995 343.46 214.561 343.995 220.556C344.086 221.58 342.492 221.88 342.427 220.839C341.891 215.192 339.074 210.006 334.627 206.484C332.058 204.464 328.23 202.515 324.622 202.391C325.495 203.937 325.955 205.682 325.959 207.457C325.926 209.868 324.859 212.584 322.491 213.558C319.922 214.625 317.138 213.065 315.957 210.708C314.618 208.024 315.777 204.914 317.926 203.033C319.019 202.083 320.329 201.416 321.74 201.092C321.053 200.322 320.266 199.646 319.401 199.083C314.914 196.182 308.936 197.22 305.39 201.123C304.695 201.888 303.642 200.671 304.327 199.914C306.666 197.375 309.946 195.907 313.399 195.855ZM322.813 202.496C321.643 202.664 320.528 203.104 319.558 203.779C317.489 205.235 316.133 208.025 317.6 210.371C318.816 212.309 321.464 213.051 323.091 211.176C324.502 209.55 324.608 207.005 324.002 205.031C323.721 204.137 323.321 203.284 322.813 202.496Z" fill="#FFA000"/>
<path d="M78.4932 79.0586C86.0235 79.061 92.357 84.7052 93.2236 92.1855C94.0903 99.6659 89.2151 106.609 81.8848 108.333C82.4772 109.974 83.3302 111.524 83.8545 112.143L84.8018 113.078C87.9742 116.212 87.9741 116.212 87.5772 116.793L87.1836 117.358L86.541 117.062C86.3248 116.962 85.9486 116.801 85.4658 116.591C82.6193 115.365 76.0108 112.518 71.1797 108.727H60.8125C56.8463 108.727 53.0456 107.137 50.2617 104.312C47.4779 101.486 45.9433 97.6631 46.002 93.6973C46.1056 85.6256 52.9212 79.0586 61.1943 79.0586H78.4932ZM61.1709 80.6729C53.7657 80.6729 47.6808 86.523 47.5859 93.7061C47.5392 97.2423 48.9111 100.65 51.3945 103.168C53.8779 105.686 57.2663 107.104 60.8027 107.106H71.7422L71.9639 107.284C75.4443 110.069 80.0062 112.362 83.2793 113.854L82.6221 113.202C81.7483 112.168 80.6316 109.912 80.0332 107.954L79.835 107.299L80.0029 107.216V107.038L80.6758 106.929C87.4563 105.787 92.2292 99.637 91.6533 92.7852C91.0773 85.9334 85.3447 80.6672 78.4688 80.6729H61.1709Z" fill="#FBA321"/>
<path d="M80.1189 73.4988C74.5715 81.2857 69.8848 89.6511 66.1408 98.4484C64.227 95.2182 62.1273 92.1018 59.8523 89.1149C58.8511 87.7968 56.7007 89.2334 57.7107 90.5574C60.496 94.2038 63.0173 98.0446 65.2552 102.05C65.7232 102.886 67.1391 102.761 67.4915 101.89C71.2876 92.4455 76.1831 83.4806 82.0769 75.1812C83.0336 73.8394 81.0846 72.1421 80.1189 73.4988Z" fill="#16904E"/>
<defs>
<linearGradient id="paint0_linear_1_95" x1="27.3779" y1="17.2334" x2="-10.9064" y2="285.441" gradientUnits="userSpaceOnUse">
<stop stop-color="#1FC069"/>
<stop offset="1" stop-color="#ACFFB2"/>
</linearGradient>
<linearGradient id="paint1_linear_1_95" x1="81.2102" y1="318.747" x2="89.9916" y2="241.647" gradientUnits="userSpaceOnUse">
<stop stop-color="#1FC069"/>
<stop offset="1" stop-color="#ACFFD2"/>
</linearGradient>
<linearGradient id="paint2_linear_1_95" x1="360.988" y1="330" x2="360.988" y2="198" gradientUnits="userSpaceOnUse">
<stop stop-color="#177F47"/>
<stop offset="1" stop-color="#51D38D"/>
</linearGradient>
</defs>
</svg>
