<svg width="253" height="250" viewBox="0 0 253 250" fill="none" xmlns="http://www.w3.org/2000/svg">
<path d="M9.99743 181.083C9.99743 181.083 26.2534 224.676 64.6361 238.645C109.843 255.096 166.185 239.359 182.862 230.769C199.538 222.179 236.662 196.782 247.613 159.901C258.564 123.02 250.96 102.558 232.21 107.818C213.46 113.079 174.746 113.39 140.226 90.659C105.705 67.928 91.1289 42.6407 44.5916 59.3764C11.3481 71.3314 -15.2277 110.816 9.99743 181.083Z" fill="url(#paint0_linear_1_629)"/>
<path d="M135.978 68.6478C130.889 75.4339 125.806 78.2301 113.582 78.3486C110.679 72.7029 106.997 69.2995 103.442 67.303C104.829 66.7106 106.002 66.2278 106.867 65.8782C110.11 64.5542 121.176 62.1727 131.046 60.425C133.117 62.1663 134.952 64.1697 136.505 66.3848C136.633 67.179 136.443 67.9916 135.978 68.6478V68.6478Z" fill="#FFC89E"/>
<path d="M126.621 50.2799L126.547 52.4955L126.526 53.0495L126.259 61.0204L125.936 70.7272L106.517 73.8551L107.231 58.4819C108.863 58.7485 110.557 57.8036 111.736 56.761C111.914 56.601 112.08 56.4381 112.237 56.2663C113.16 55.2878 113.849 54.1131 114.254 52.8303C114.449 52.2173 114.575 51.5844 114.63 50.9434L126.621 50.2799Z" fill="#FFC89E"/>
<path d="M127.512 65.6265C127.109 65.8842 127.02 64.803 127.018 64.6312C127.018 63.8433 127.074 63.0525 127.095 62.2616C127.14 60.6206 127.151 58.9796 127.127 57.3386C127.127 56.45 125.747 56.5448 125.759 57.4245C125.786 59.5355 125.761 61.6455 125.682 63.7545C125.649 64.6135 125.545 65.5673 126.093 66.3019C126.59 67.0024 127.543 67.2025 128.279 66.761C129.026 66.29 128.259 65.1526 127.512 65.6265Z" fill="#FF7E64"/>
<path d="M126.529 53.0494L126.262 61.0204C126.159 61.0352 126.055 61.0411 125.951 61.047C125.902 61.1267 125.834 61.1929 125.753 61.2396C124.485 61.8853 123.12 61.5773 121.816 61.1981C120.46 60.793 119.142 60.2707 117.877 59.6371C116.715 59.0595 115.611 58.319 114.989 57.1608C114.367 56.0026 114.213 54.7585 114.1 53.5026C114.074 53.3177 114.134 53.1311 114.263 52.9961C114.33 52.8283 114.47 52.7002 114.643 52.6483C114.816 52.5964 115.003 52.6263 115.152 52.7295C115.83 51.9801 117.207 52.069 118.114 52.0571C119.745 52.0355 121.375 52.1345 122.992 52.3533C124.184 52.5156 125.365 52.7481 126.529 53.0494Z" fill="#FF7E64"/>
<path d="M126.87 33.4375C133.61 36.3875 136.685 44.2408 133.74 50.9833C130.796 57.7258 122.945 60.8074 116.2 57.8681C109.455 54.9288 106.367 47.0805 109.301 40.3333C110.713 37.0863 113.359 34.5345 116.655 33.2408C119.951 31.9471 123.626 32.0179 126.87 33.4375V33.4375Z" fill="#FFC89E"/>
<path d="M127.986 26.915C127.773 27.0453 127.563 27.1756 127.34 27.2911C125.525 28.2953 123.472 28.864 121.437 29.3646L110.501 31.9712C110.945 33.8209 110.9 35.7544 110.371 37.5814C110.089 38.55 109.568 39.3379 109.186 40.2473C108.946 40.819 109.446 41.1685 109.832 41.5862C110.217 42.0038 110.572 42.3948 110.942 42.8006C112.278 44.2817 113.623 45.819 114.269 47.7384C114.606 48.773 114.727 49.866 114.624 50.9493C114.57 51.5903 114.443 52.2232 114.248 52.8362C113.994 53.6255 113.637 54.3776 113.185 55.0725C112.904 55.5007 112.585 55.9022 112.231 56.2722C112.074 56.444 111.908 56.6069 111.73 56.7668C110.545 57.8095 108.857 58.7544 107.225 58.4878L107.403 54.6371C101.203 51.4787 97.4624 44.9487 97.8739 38.0032C98.2855 31.0576 102.771 25.0151 109.3 22.611C115.83 20.2069 123.163 21.8977 127.98 26.9179L127.986 26.915Z" fill="#1A1A1A"/>
<path d="M132.568 46.3818C129.319 53.8398 120.928 57.5998 113.199 55.0607C113.652 54.3658 114.009 53.6137 114.263 52.8243C114.458 52.2114 114.584 51.5785 114.639 50.9375C114.742 49.8541 114.621 48.7612 114.284 47.7266C113.638 45.8071 112.293 44.255 110.957 42.7888C110.587 42.383 110.208 41.9861 109.846 41.5743C109.485 41.1626 108.958 40.8071 109.201 40.2355C109.577 39.3231 110.089 38.5352 110.385 37.5696C110.915 35.7425 110.96 33.8091 110.516 31.9594L121.452 29.3528C123.487 28.867 125.539 28.2983 127.355 27.2793C133.375 31.6243 135.547 39.5812 132.568 46.3818Z" fill="#FFC89E"/>
<path d="M131.396 46.0323C128.16 53.4776 120.223 57.7145 112.237 56.2603C112.409 56.0737 112.574 55.8842 112.731 55.6916C112.005 55.3454 111.39 54.8038 110.954 54.1276C110.799 53.8834 110.683 53.6166 110.611 53.3368C110.472 53.1716 110.438 52.9429 110.522 52.7443C110.5 52.3221 110.621 51.9048 110.865 51.5595C111.329 50.9585 112.053 50.6159 112.811 50.6383C112.764 50.3925 112.731 50.1584 112.69 49.96C112.08 46.7284 111.283 43.4019 109.073 40.8575C108.945 40.708 108.899 40.5043 108.951 40.3142C109.004 40.124 109.147 39.9724 109.334 39.9096C109.692 39.1217 110.131 38.4019 110.377 37.54C110.906 35.7129 110.951 33.7795 110.507 31.9298L121.443 29.3231C123.727 28.7752 126.025 28.1383 127.992 26.8883C132.9 31.9912 134.243 39.5506 131.396 46.0323V46.0323Z" fill="#FFC89E"/>
<path d="M123.961 144.211C123.961 152.92 116.9 159.981 108.191 159.981C99.4809 159.981 92.4204 152.92 92.4204 144.211C92.4204 135.501 99.4809 128.44 108.191 128.44C116.9 128.44 123.961 135.501 123.961 144.211V144.211Z" fill="#FFC89E"/>
<path d="M110.442 94.649C110.447 101.029 106.607 106.783 100.714 109.227C94.8212 111.672 88.036 110.325 83.5236 105.815C79.0111 101.305 77.6605 94.5209 80.1016 88.6266C82.5428 82.7323 88.2948 78.8896 94.6746 78.8907C103.378 78.8924 110.435 85.9452 110.442 94.649Z" fill="#FFC89E"/>
<path d="M197.699 111.788C197.718 111.617 197.708 111.445 197.669 111.278C197.561 110.938 197.425 110.607 197.263 110.289C196.692 108.636 195.849 107.091 194.769 105.715C187.456 93.1205 179.443 80.6264 170.439 69.1691C164.624 61.7639 154.858 56.1152 145.14 58.8729C143.626 59.3024 143.573 59.9363 143.398 61.6128C139.002 64.9276 136.654 70.2947 137.201 75.7727C137.749 81.2507 141.114 86.0466 146.079 88.4256C150.32 95.7923 161.185 114.228 168.59 123.135C172.432 130.004 180.75 132.988 188.082 130.13C195.415 127.271 199.517 119.444 197.696 111.788H197.699Z" fill="#F9A41E"/>
<path d="M129.328 39.0506C129.328 38.242 128.899 37.4037 128.122 37.4037C126.49 37.4037 127.032 39.4594 127.69 40.2562C127.823 40.4053 128.009 40.4958 128.208 40.508C128.979 40.5435 129.337 39.8119 129.328 39.0506Z" fill="#1A1A1A"/>
<path d="M110.83 44.4535C113.329 45.5448 114.47 48.4552 113.379 50.9543C112.288 53.4534 109.378 54.595 106.878 53.5042C104.379 52.4133 103.237 49.5032 104.328 47.0038C105.42 44.5051 108.33 43.3637 110.83 44.4535Z" fill="#FFC89E"/>
<path d="M143.522 159.853C137.103 159.984 125.768 160.114 118.214 160.15C117.942 142.152 120.859 112.395 118.3 94.2994C117.355 87.6258 115.673 82.4126 113.582 78.3516C125.806 78.2331 130.889 75.4369 135.978 68.6507C136.443 67.9945 136.632 67.182 136.505 66.3877C139.793 71.0382 142.912 78.008 142.912 87.7147C142.912 103.754 143.339 143.494 143.522 159.853Z" fill="#D4D4FF"/>
<path d="M211.878 104.003C211.076 105.881 208.359 109.77 205.039 113.983C202.462 113.757 198.819 112.907 195.676 110.197C191.182 106.328 192.192 99.0832 193.522 94.3172C197.625 91.9653 201.698 89.5986 204.95 87.0186C206.576 85.7213 213.958 99.1454 211.878 104.003Z" fill="#FFC89E"/>
<path d="M118.214 160.147C99.5976 160.238 84.8612 159.812 83.9903 157.721C82.2546 153.574 76.2534 104.957 79.1384 90.8338C81.2534 80.4665 90.6906 73.7307 98.2854 69.7585C100.163 68.7722 101.926 67.9635 103.442 67.303C106.997 69.2994 110.679 72.7029 113.582 78.3486C115.673 82.4096 117.355 87.6229 118.3 94.2965C120.859 112.392 117.939 142.149 118.214 160.147Z" fill="#F9A41E"/>
<path d="M166.413 164.957C165.397 164.957 150.353 158.837 141.147 159.033C140.96 142.673 142.924 103.757 142.924 87.7147C142.924 78.008 139.805 71.0382 136.517 66.3877C134.964 64.1726 133.128 62.1692 131.058 60.428C131.804 60.3036 132.539 60.1732 133.268 60.0488C139.713 58.9529 145.326 58.1827 147.423 58.2538C152.912 58.4315 158.679 63.7988 162.503 71.5832C168.034 82.928 169.882 164.957 166.413 164.957Z" fill="#F9A41E"/>
<path d="M151.049 116.109C150.856 116.488 150.658 116.885 150.457 117.294C144.236 129.682 128.197 156.942 118.297 161.18C112.109 163.828 99.9323 165.683 93.6942 156.325C87.456 146.968 79.3103 107.199 79.1355 101.574C78.9607 95.9493 78.4453 92.2171 82.6011 84.2461C86.757 76.2751 97.1568 69.3409 103.742 77.3119C110.326 85.2828 113.792 123.408 113.792 123.408C113.792 123.408 123.629 113.008 131.304 105.093C131.647 104.75 131.976 104.415 132.299 104.077C135.963 110.932 143.792 113.547 151.049 116.109Z" fill="#F9A41E"/>
<path d="M164.941 103.381C165.939 109.515 166.601 115.7 166.923 121.906C166.967 122.795 168.339 122.7 168.291 121.82C167.971 115.625 167.312 109.451 166.319 103.328L164.941 103.381Z" fill="#E8EAFF"/>
<path d="M171.36 99.8119C172.293 101.527 170.699 102.925 169.15 103.304C166.781 103.897 164.224 103.426 161.819 103.941C160.671 104.159 159.584 104.625 158.635 105.307C157.634 106.068 156.997 107.152 156.44 108.269C155.371 110.395 154.298 112.43 152.666 114.193C152.254 114.637 151.81 115.105 151.33 115.529C151.144 115.695 150.96 115.86 150.759 116.009C145.486 114.14 139.909 112.214 135.91 108.618C134.445 107.329 133.223 105.788 132.302 104.068C135.744 100.538 138.626 97.6407 139.757 96.6632C140.415 95.2544 141.148 93.882 141.952 92.5518C144.23 88.9026 147.337 85.739 150.371 82.7088C153.14 79.9511 156.295 77.3178 160.116 76.2337C161.653 75.8012 164.218 75.7539 164.452 77.9073C164.666 79.8563 162.083 81.1656 160.782 82.1135C159.061 83.3605 157.18 84.7793 155.72 86.4411C156.206 86.0856 156.701 85.742 157.222 85.4251C159.63 83.944 162.435 82.8184 165.288 82.7592C167.106 82.7177 171.846 83.4671 171.241 86.2456C171.098 86.8102 170.712 87.2822 170.187 87.5341C170.971 87.9339 171.556 88.6388 171.804 89.4831C172.065 90.5643 171.464 91.6158 170.59 92.2408C169.597 92.9517 168.3 93.1028 167.148 93.4257C165.957 93.744 164.797 94.1683 163.682 94.6934C162.593 95.2021 161.586 95.8699 160.693 96.6751C160.329 97.0219 159.991 97.3962 159.683 97.7947C161.473 97.4886 163.293 97.3981 165.104 97.5252C167.038 97.6703 170.291 97.8303 171.36 99.8119Z" fill="#FFC89E"/>
<path d="M151.33 115.526C151.241 115.718 151.144 115.911 151.034 116.118L150.738 116.015C150.96 115.858 151.144 115.692 151.33 115.526Z" fill="#FFC89E"/>
<path d="M236.653 82.3829C234.461 83.5915 232.098 84.4564 229.746 85.3184C224.752 87.1282 219.971 89.3024 215.495 92.1815C214.411 92.8746 213.353 93.6004 212.323 94.3586C211.544 94.9274 210.791 95.5701 209.953 96.0678C209.793 96.3284 209.633 96.5891 209.473 96.8438C207.029 100.659 202.518 104.211 197.803 102.01C197.237 101.743 197.42 101.023 197.868 100.84C196.891 94.8789 198.753 88.8039 202.903 84.4149L202.971 84.2994C204.505 81.9957 205.633 79.4473 206.31 76.7639C206.846 74.6726 207.145 71.8053 209.529 70.973C211.555 70.265 213.167 72.063 213.324 73.9677C213.428 75.1969 212.974 76.3818 212.625 77.5399C212.215 78.8707 211.988 80.2507 211.949 81.6424C211.963 83.014 212.054 84.3836 212.222 85.7449C213.999 85.2443 215.72 84.4594 217.376 83.7781C220.293 82.5814 223.173 81.2978 226.016 79.9274C228.386 78.781 230.776 77.2378 233.342 76.5506C235.362 76.0085 238.045 76.0648 239.529 77.7858C241.31 79.8533 238.161 81.5565 236.653 82.3829Z" fill="#FFC89E"/>
<path d="M228.25 76.4946C228.899 75.1705 230.019 73.8848 231.633 74.0122C235.048 74.285 233.67 79.4502 233.102 81.4467C231.683 86.4586 228.618 90.8134 224.841 94.3413C224.052 95.4928 223.138 96.5542 222.118 97.5073C221.31 98.2656 220.03 99.4626 218.744 99.8002C215.717 103.121 211.633 105.407 207.525 107.14C206.192 107.706 204.775 108.364 203.294 108.269C201.955 108.186 200.753 107.424 199.796 106.536C198.232 105.087 197.272 102.726 198.315 100.833C198.299 100.419 198.402 100.008 198.611 99.6489C199.376 98.3664 201.147 97.5664 202.402 96.8852C202.58 96.7697 202.758 96.687 202.936 96.5893C203.491 96.1563 204.086 95.7771 204.713 95.4575C206.046 94.7673 207.507 94.4715 208.964 94.1752C210.077 93.8548 211.207 93.5907 212.347 93.3842C212.906 93.2034 213.447 92.9711 213.964 92.6909C215.164 92.0736 216.074 91.0101 216.499 89.729C216.884 88.5294 216.953 87.2499 217.284 86.0385C217.761 84.2228 219.538 81.557 221.617 83.1118C222.043 81.8903 222.641 80.7355 223.395 79.684C224.354 78.3808 225.975 76.8468 227.752 77.6108C227.903 77.2347 228.064 76.8588 228.25 76.4946ZM220.96 96.8559H220.969C220.971 96.8514 220.974 96.8468 220.977 96.8422C220.971 96.8464 220.966 96.852 220.96 96.8559ZM221.152 96.559C221.099 96.6413 221.032 96.7404 220.977 96.8422C221.07 96.7745 221.134 96.6734 221.152 96.559Z" fill="#FFC89E"/>
<path d="M205.039 113.983C199.784 120.671 193.022 128.162 190.045 129.652C185.196 132.072 176.875 132.072 173.753 127.916C170.631 123.76 171.333 115.437 176.182 107.478C179.254 102.442 186.422 98.402 193.522 94.3291C192.192 99.0951 191.182 106.34 195.676 110.209C198.818 112.907 202.462 113.757 205.039 113.983Z" fill="#F9A41E"/>
<path d="M130.267 32.1078C131.637 31.7985 133.074 32.0998 134.204 32.934C136.63 34.7251 137.386 38.0199 135.981 40.6889C135.329 41.9322 134.169 42.8308 132.803 43.1528C132.462 43.232 132.112 43.2733 131.762 43.2748C129.375 43.2746 127.154 41.4376 126.541 38.7778C125.842 35.7329 127.513 32.7417 130.267 32.1078ZM131.134 33.3637C130.947 33.3747 130.761 33.4014 130.578 33.4438C128.558 33.9059 127.347 36.1627 127.877 38.4789C128.407 40.7953 130.469 42.2857 132.501 41.8266C133.483 41.5915 134.315 40.9433 134.784 40.0492C135.849 37.9898 135.268 35.4619 133.41 34.0746C132.806 33.6223 132.075 33.3715 131.321 33.3578L131.134 33.3637Z" fill="#F4314E"/>
<path d="M131.76 44.8267C131.363 45.6175 130.128 45.0192 130.525 44.2342C130.922 43.4493 129.476 42.9783 128.967 42.7739C128.213 42.4759 127.545 41.9967 127.02 41.3788C125.854 40.0406 125.221 38.3197 125.243 36.5447C125.243 36.4351 125.243 36.3255 125.264 36.2218C125.668 36.4116 126.109 36.5126 126.555 36.518C126.58 37.1612 126.693 37.7981 126.89 38.4108C127.144 39.1578 127.531 39.853 128.031 40.4635C128.543 41.0885 129.183 41.3669 129.917 41.6691C131.161 42.1608 132.494 43.3634 131.76 44.8267Z" fill="#FF7E64"/>
<path d="M119.882 42.7325C119.882 41.9238 119.452 41.0856 118.676 41.0856C117.044 41.0856 117.586 43.1413 118.247 43.9381C118.38 44.0872 118.566 44.1777 118.765 44.1898C119.535 44.2343 119.891 43.4937 119.882 42.7325Z" fill="#1A1A1A"/>
<path d="M130.43 48.2243C130.323 48.8215 130.092 49.3897 129.752 49.8919C129.416 50.3076 128.979 50.6308 128.484 50.8309C127.567 51.1931 126.543 51.1706 125.643 50.7687C125.188 50.5762 124.767 50.3122 124.396 49.9867C124.023 49.6727 123.463 49.2047 123.428 48.6834C123.371 47.8747 124.34 47.8273 124.909 47.6822C125.477 47.5371 125.999 47.386 126.541 47.2023C127.103 47.0113 127.692 46.9113 128.285 46.9061C128.888 46.925 129.488 46.9883 130.08 47.0957C130.676 47.1964 130.732 47.8629 130.43 48.2243Z" fill="white"/>
<path d="M120.797 35.9878C117.945 34.5512 114.719 35.9582 112.847 38.2893C112.296 38.9736 113.333 39.8741 113.887 39.178C115.368 37.3237 117.891 36.0559 120.202 37.22C120.99 37.6199 121.588 36.3847 120.797 35.9878Z" fill="#1A1A1A"/>
<path d="M115.331 39.2958C116.953 37.674 119.392 37.189 121.511 38.0673C123.63 38.9456 125.01 41.014 125.009 43.3075C125.004 46.4348 122.47 48.9685 119.343 48.9735C117.05 48.9747 114.981 47.5941 114.103 45.4755C113.225 43.3567 113.71 40.9176 115.331 39.2958ZM119.343 39.0097C117.605 39.0085 116.036 40.0542 115.37 41.66C114.703 43.266 115.071 45.1158 116.3 46.3456C117.529 47.5751 119.378 47.9431 120.984 47.2782C122.59 46.6132 123.638 45.046 123.638 43.3075C123.638 40.9346 121.716 39.0102 119.343 39.0067V39.0097Z" fill="#F4314E"/>
<path d="M131.401 33.2746C130.076 32.5691 128.435 32.919 127.512 34.104C126.96 34.7923 126.648 35.6421 126.624 36.524C126.154 36.5263 125.69 36.4252 125.264 36.2278C125.378 34.6936 126.149 33.2833 127.379 32.3593C128.736 31.3971 130.519 31.2825 131.988 32.0631C132.767 32.4571 132.178 33.6982 131.401 33.2746Z" fill="#1A1A1A"/>
<path d="M128.442 39.1987C126.339 38.4582 124.334 40.425 123.679 42.2734C123.526 42.615 123.666 43.017 123.999 43.1887C124.341 43.3489 124.749 43.2069 124.917 42.8688C124.986 42.6735 125.066 42.4826 125.157 42.2971C125.199 42.2141 125.243 42.1312 125.288 42.0512L125.368 41.9179C125.486 41.7454 125.614 41.5792 125.75 41.4203C125.818 41.3433 125.889 41.2663 125.96 41.1922L126.073 41.0856C126.229 40.949 126.395 40.8242 126.57 40.7124C126.615 40.6827 126.662 40.6561 126.707 40.6324C126.889 40.5466 127.078 40.4762 127.272 40.4221L127.477 40.3984C127.576 40.4012 127.675 40.4091 127.773 40.4221C127.803 40.4221 127.968 40.4813 127.841 40.4221C128.182 40.5857 128.591 40.4418 128.755 40.1007C128.918 39.7596 128.775 39.3505 128.433 39.1869L128.442 39.1987Z" fill="#F4314E"/>
<path d="M112.18 48.316C110.338 47.54 108.208 47.0453 106.277 47.8066C105.925 47.935 105.735 48.3162 105.845 48.6744C105.967 49.0318 106.354 49.2245 106.712 49.1069C108.312 48.4789 110.06 48.9084 111.585 49.5512C111.927 49.7079 112.331 49.5666 112.5 49.2313C112.662 48.8901 112.52 48.4822 112.18 48.316Z" fill="#FF7E64"/>
<path d="M164.017 87.0839C160.335 87.937 157.083 89.9956 154.038 92.152C153.318 92.6615 154.082 93.8019 154.805 93.2894C157.246 91.5625 159.781 89.9038 162.625 88.9174C164.061 88.4011 165.567 88.1016 167.092 88.0288C168.392 87.9784 171.135 87.937 171.289 89.7409C171.366 90.6295 172.734 90.5347 172.66 89.655C172.329 85.822 166.564 86.4944 164.017 87.0839Z" fill="#FF7E64"/>
<path d="M170.424 83.2153C168.632 82.1015 166.227 82.0956 164.204 82.3267C159.485 82.8865 155.344 85.3835 151.523 88.0435C150.797 88.547 151.561 89.6874 152.287 89.1839C155.368 87.0393 158.599 85.0044 162.278 84.0713C164.11 83.5676 166.027 83.4526 167.906 83.7337C169.458 84.0062 171.659 85.2502 170.836 87.1667C170.492 87.9783 171.724 88.5796 172.074 87.7591C172.797 86.05 171.964 84.172 170.424 83.2153Z" fill="#FF7E64"/>
<path d="M166.084 97.3119C162.462 96.7817 158.836 97.4244 155.279 98.082C154.42 98.242 154.497 99.6134 155.365 99.4535C158.128 98.941 160.922 98.4197 163.747 98.4849C165.1 98.5111 166.444 98.7102 167.746 99.0773C168.368 99.258 171.381 100.144 170.625 101.278C170.14 102.004 171.176 102.907 171.665 102.167C173.747 99.0329 168.105 97.6111 166.084 97.3119Z" fill="#FF7E64"/>
<path d="M223.907 86.7047C223.789 84.7972 223.315 82.2616 221.292 81.4855C219.269 80.7095 217.237 82.4927 216.624 84.3647C215.836 86.7581 216.834 90.6147 214.227 92.0661C213.457 92.4986 214.227 93.6331 214.991 93.2036C217.192 91.9684 217.382 89.3321 217.548 87.0898C217.645 85.7539 217.797 84.2669 218.839 83.3043C219.817 82.3979 221.102 82.4956 221.801 83.6627C222.456 84.7586 222.542 86.1745 222.568 87.4186C222.584 88.9677 222.414 90.513 222.062 92.0217C221.715 93.554 221.267 95.062 220.723 96.5359C220.335 97.62 219.92 99.1099 218.768 99.6135C217.962 99.963 218.395 101.266 219.204 100.914C221.387 99.963 221.991 97.1816 222.643 95.12C223.499 92.4097 224.085 89.5543 223.907 86.7047Z" fill="#FF7E64"/>
<path d="M229.784 80.3037C229.577 79.2255 229.248 77.7948 228.265 77.149C227.376 76.5744 226.274 76.8202 225.397 77.2616C223.407 78.2965 222.036 80.2254 221.712 82.4452C221.582 83.3161 222.93 83.5827 223.057 82.7089C223.293 80.9253 224.368 79.3621 225.948 78.5027C226.307 78.3161 226.837 78.0702 227.26 78.1858C227.823 78.3398 227.998 78.9974 228.167 79.4921C228.482 80.4808 228.636 81.514 228.623 82.5519C228.641 86.6662 227.05 90.828 224.636 94.104C224.118 94.809 225.154 95.7095 225.679 94.9926C228.638 90.9849 230.765 85.3599 229.784 80.3037Z" fill="#FF7E64"/>
<path d="M232.684 74.2343C230.575 72.8273 227.921 74.7882 227.45 76.9268C227.26 77.7917 228.608 78.0524 228.798 77.1904C229.047 76.0441 230.214 74.9215 231.464 75.1999C232.847 75.4961 232.788 77.5518 232.699 78.6418C232.483 81.3492 231.218 83.9736 229.991 86.3433C227.591 90.9825 224.348 95.1341 220.427 98.5856C219.772 99.1602 220.531 100.304 221.191 99.723C225.022 96.3778 228.243 92.3929 230.711 87.9458C231.941 85.7153 233.081 83.3397 233.721 80.8664C234.212 78.9084 234.677 75.5642 232.684 74.2343Z" fill="#FF7E64"/>
<path d="M214.716 91.9475C212.606 92.731 210.414 93.2706 208.182 93.5559C206.215 93.7988 204.177 93.8699 202.355 94.7408C199.345 96.214 197.404 99.2397 197.32 102.59C197.293 103.479 198.665 103.381 198.688 102.504C198.815 99.291 200.961 96.5098 204.038 95.5731C205.815 95.0518 207.711 95.0577 209.529 94.7526C211.447 94.4342 213.331 93.9384 215.157 93.2716C215.984 92.9457 215.548 91.6424 214.716 91.9475Z" fill="#FF7E64"/>
<path d="M197.933 91.0057C190.119 95.3165 182.273 99.5621 174.396 103.743C173.617 104.157 174.396 105.292 175.16 104.88C183.039 100.698 190.885 96.452 198.697 92.1431C199.47 91.7195 198.7 90.5821 197.933 91.0057Z" fill="#E8EAFF"/>
<path d="M160.362 75.0993C159.177 75.3955 158.09 76.0856 157.047 76.7017C156.004 77.3179 154.935 78.0021 153.919 78.713C149.915 81.5131 146.354 84.8991 143.356 88.7574C141.721 90.8664 140.323 93.1384 138.786 95.3125C137.22 97.4921 135.444 99.513 133.484 101.346C129.568 105.073 125.664 108.769 122.026 112.774C117.932 117.288 114.103 122.035 110.557 126.992C110.048 127.703 111.082 128.606 111.597 127.881C117.482 119.668 124.14 112.038 131.481 105.096C133.259 103.405 135.125 101.767 136.813 99.963C138.48 98.0996 139.994 96.1045 141.339 93.9974C143.967 90.0785 146.816 86.4203 150.353 83.2687C152.3 81.5421 154.387 79.9788 156.591 78.5945C157.746 77.8658 158.961 77.0602 160.24 76.5862C161.333 76.1863 163.324 76.0916 163.608 77.6289C163.768 78.4879 165.14 78.4079 164.98 77.54C164.574 75.3599 162.329 74.5779 160.362 75.0993Z" fill="#E8EAFF"/>
<path d="M116.416 120.099C114.491 117.084 113.605 113.503 112.533 110.123C111.372 106.47 110.212 102.816 109.052 99.1632C108.783 98.319 107.483 98.7574 107.752 99.5986L111.333 110.881C112.414 114.282 113.339 117.83 115.279 120.866C115.756 121.61 116.893 120.846 116.416 120.099Z" fill="#E8EAFF"/>
<path d="M213.83 130.7C213.244 130.04 214.331 129.214 214.923 129.871C219.04 134.524 220.199 141.491 217.589 147.163C216.618 149.256 215.219 151.123 213.484 152.644C213.516 152.682 213.555 152.717 213.584 152.759C217.017 157.359 215.406 163.891 212.248 168.162C208.469 173.275 202.358 175.884 196.454 177.632C195.614 177.88 195.084 176.616 195.927 176.367C201.499 174.729 207.281 172.377 210.936 167.638C213.726 164.027 215.335 158.754 213.063 154.477C212.88 154.133 212.666 153.806 212.423 153.502C212.272 153.612 212.127 153.727 211.976 153.831C210.137 155.096 206.63 157.169 204.435 155.582C202.083 153.888 204.873 150.964 206.706 150.371C208.74 149.732 210.959 150.22 212.538 151.651C215.041 149.503 216.748 146.576 217.385 143.34C218.189 138.805 216.88 134.151 213.83 130.7ZM211.44 152.513C210.242 151.498 208.604 151.179 207.113 151.669C206.23 151.968 204.917 152.836 204.955 153.914C205.009 155.271 207.382 154.59 208.102 154.317H208.105C209.291 153.865 210.412 153.258 211.44 152.513Z" fill="#95F5A6"/>
<path d="M89.6567 244.717C89.6567 244.717 97.1656 245.606 103.386 245.715C109.606 245.825 131.561 245.914 152.175 240.902C172.788 235.89 179.464 234.051 189.313 227.134C189.313 227.134 181.943 200.493 176.695 195.84C172 191.681 89.6567 244.717 89.6567 244.717Z" fill="#1A1A1A"/>
<path d="M145.643 146.545C144.524 149.341 142.361 151.663 139.861 153.307C136.923 155.23 133.478 156.166 130.015 156.533C126.451 156.883 122.86 156.844 119.304 156.417C116.638 156.121 113.676 155.401 111.736 153.39C109.595 151.154 109.553 148.132 110.338 145.33C109.527 144.95 108.928 144.228 108.703 143.36C108.38 142.176 108.798 140.991 109.5 140.034C109.885 139.542 110.332 139.102 110.83 138.725C111.327 138.325 112.05 137.943 112.311 137.321C112.607 136.592 112.059 135.822 111.846 135.147C111.663 134.565 111.608 133.951 111.683 133.346C112.071 130.327 114.983 128.903 116.742 126.782C118.644 124.456 118.534 121.237 118.433 118.402C118.398 117.513 119.763 117.433 119.796 118.313C119.861 119.535 119.861 120.759 119.796 121.98C120.981 120.058 123.232 119 125.51 118.707C128.712 118.298 131.985 119.486 134.639 121.225C139.903 124.676 143.428 130.621 145.439 136.471C146.55 139.741 146.967 143.251 145.643 146.545Z" fill="#1A1A1A"/>
<path d="M154.192 157.795C151.553 159.459 148.928 160.94 146.967 161.708C141.043 164.039 124.23 169.459 118.291 161.708C113.866 155.94 116.745 148.452 118.505 145.004C123.493 146.414 127.592 147.759 127.592 147.759C136.813 150.635 145.797 153.485 154.192 157.795Z" fill="#FFC89E"/>
<path d="M146.283 156.287L129.061 156.974L127.335 150.443L125.134 142.125L125.098 141.989L141.633 139.06L146.283 156.287V156.287Z" fill="#FFC89E"/>
<path d="M139.636 145.733C138.306 147.608 135.996 148.432 133.881 149.054C132.435 149.483 130.975 149.942 129.503 150.274C128.793 150.442 128.062 150.499 127.334 150.443L125.134 142.125C128.271 142.161 131.404 142.229 134.515 142.65C135.989 142.837 137.447 143.134 138.878 143.538C140.071 143.873 140.35 144.732 139.636 145.733Z" fill="#FF7E64"/>
<path d="M143.182 112.881C141.461 111.847 134.914 110.351 129.577 110.47C121.653 110.641 117.862 116.841 117.69 120.629C117.518 124.418 118.037 131.311 124.236 134.581C130.436 137.851 149.728 138.372 150.246 138.201C150.765 138.029 143.182 112.881 143.182 112.881Z" fill="#1A1A1A"/>
<path d="M151.256 128.278C151.256 136.784 144.36 143.68 135.854 143.68C127.347 143.68 120.451 136.784 120.451 128.278C120.451 119.771 127.347 112.875 135.854 112.875C144.36 112.875 151.256 119.771 151.256 128.278Z" fill="#FFC89E"/>
<path d="M127.797 149.27C127.279 147.163 126.763 145.056 126.247 142.949C126.037 142.093 124.746 142.534 124.953 143.381C125.433 145.332 125.911 147.283 126.387 149.234C126.855 151.139 127.571 153.171 127.275 155.158C127.142 156.023 128.478 156.29 128.614 155.419C128.937 153.325 128.288 151.275 127.797 149.27Z" fill="#FF7E64"/>
<path d="M143.653 133.23C143.653 140.474 137.78 146.346 130.537 146.346C123.293 146.346 117.42 140.474 117.42 133.23C117.42 125.986 123.293 120.114 130.537 120.114C137.78 120.114 143.653 125.986 143.653 133.23V133.23Z" fill="#FFC89E"/>
<path d="M146.748 140.17C146.748 142.121 145.572 143.88 143.77 144.626C141.967 145.372 139.892 144.958 138.514 143.578C137.135 142.198 136.724 140.123 137.472 138.321C138.22 136.519 139.981 135.346 141.932 135.348C144.593 135.351 146.748 137.509 146.748 140.17V140.17Z" fill="#FFC89E"/>
<path d="M135.042 125.164C134.904 125.008 134.702 124.923 134.494 124.933C133.402 124.956 132.462 125.707 132.198 126.767C131.982 127.123 131.934 127.556 132.065 127.952C132.199 128.294 132.577 128.472 132.927 128.358C134.121 127.983 135.003 126.968 135.208 125.733C135.242 125.528 135.181 125.319 135.042 125.164V125.164Z" fill="#1A1A1A"/>
<path d="M125.226 122.407C125.086 122.253 124.885 122.168 124.678 122.176C123.585 122.2 122.644 122.952 122.379 124.012C122.167 124.364 122.118 124.791 122.246 125.182C122.372 125.535 122.754 125.724 123.111 125.612C124.304 125.237 125.185 124.222 125.388 122.987C125.428 122.779 125.368 122.564 125.226 122.407Z" fill="#1A1A1A"/>
<path d="M129.014 120.384C128.849 120.966 128.606 121.523 128.291 122.039C127.546 123.335 126.537 124.459 125.329 125.339C124.719 125.759 124.03 126.049 123.303 126.192C123.093 126.234 121.615 126.432 121.955 126.915C122.459 127.632 121.327 128.396 120.824 127.679C119.971 126.471 121.17 125.259 122.329 124.999C123.01 124.85 123.659 124.762 124.266 124.406C124.849 124.051 125.376 123.61 125.827 123.097C126.546 122.353 127.132 121.491 127.56 120.549C127.794 120.552 128.028 120.519 128.253 120.452C128.502 120.391 128.758 120.368 129.014 120.384Z" fill="#FF7E64"/>
<path d="M129.014 120.384C128.755 120.362 128.494 120.38 128.241 120.437C128.016 120.505 127.782 120.538 127.548 120.535C127.72 120.122 127.82 119.683 127.844 119.237C127.897 118.174 127.305 116.989 126.194 116.776C125.329 116.613 125.602 115.277 126.452 115.44C127.719 115.718 128.721 116.686 129.044 117.943C129.262 118.743 129.252 119.589 129.014 120.384Z" fill="#1A1A1A"/>
<path d="M121.958 131.023L119.885 130.01C119.545 129.847 119.138 129.989 118.974 130.329C118.81 130.668 118.953 131.076 119.292 131.24L121.366 132.253C121.705 132.416 122.113 132.274 122.277 131.934C122.44 131.595 122.298 131.187 121.958 131.023Z" fill="#1A1A1A"/>
<path d="M116.313 144.572C113.558 143.366 99.7783 138.372 82.5448 143.195C74.8997 145.336 58.9459 145.778 49.8168 153.011C46.9554 155.283 41.3778 166.447 48.6112 173.855C55.8446 181.263 79.2717 178.002 90.2966 177.3C101.322 176.598 110.791 175.576 110.791 175.576L116.313 144.572Z" fill="#1E894F"/>
<path d="M72.4767 198.218C64.4791 204.987 50.8535 201.604 48.2765 192.629C47.1124 188.574 45.7913 174.599 44.9856 161.177C48.2972 162.543 53.0365 163.497 58.8837 162.57C62.6997 161.943 66.3546 160.57 69.639 158.529C70.1574 160.65 70.5484 162.276 70.738 163.129C71.9317 168.517 80.4862 191.45 72.4767 198.218Z" fill="#F4314E"/>
<path d="M69.639 158.529C66.3546 160.57 62.6997 161.943 58.8837 162.57C53.0365 163.497 48.2972 162.543 44.9856 161.177C44.254 149.074 43.937 137.43 44.5206 133.926C45.7439 126.521 53.0543 121.616 57.6692 120.043L60.4832 121.965C60.4832 121.965 66.8961 147.279 69.639 158.529Z" fill="#FFC89E"/>
<path d="M139.601 125.262C138.841 122.668 136.682 120.725 134.023 120.241C133.779 120.182 133.522 120.261 133.355 120.448C133.187 120.635 133.136 120.899 133.221 121.135C133.306 121.371 133.514 121.541 133.762 121.577C134.836 121.759 135.833 122.249 136.633 122.987C136.733 123.076 136.828 123.171 136.929 123.266C136.979 123.316 137.029 123.369 137.077 123.423C137.291 123.672 137.489 123.934 137.669 124.208C137.746 124.329 137.82 124.454 137.888 124.584C137.888 124.584 137.942 124.688 137.951 124.702C137.96 124.717 138.004 124.818 138.031 124.874C138.148 125.14 138.247 125.415 138.327 125.695C138.454 126.04 138.833 126.222 139.182 126.105C139.532 125.988 139.725 125.615 139.618 125.262H139.601Z" fill="#1A1A1A"/>
<path d="M182.862 230.766C182.853 237.991 177.823 244.239 170.766 245.79C163.709 247.342 156.522 243.779 153.484 237.223C152.139 234.83 145.682 211.056 145.682 211.056L109.509 205.89L104.085 195.301C100.096 193.194 97.1162 189.579 95.8096 185.261C94.503 180.944 94.9786 176.283 97.1302 172.318C91.2017 168.752 88.3782 161.671 90.2265 155.004C92.0748 148.337 98.1414 143.72 105.06 143.716C106.947 143.716 115.051 144.039 118.508 145.007C116.748 148.455 113.869 155.943 118.294 161.711C124.233 169.462 141.034 164.042 146.97 161.711C148.928 160.946 151.553 159.454 154.192 157.798C158.375 159.911 162.343 162.425 166.04 165.304C172.572 170.431 175.815 177.964 177.678 186.077C179.405 193.612 179.923 201.651 180.747 208.719C181.339 213.725 181.908 218.737 182.397 223.746C182.574 225.532 183.57 229.021 182.862 230.766Z" fill="#218D53"/>
<path d="M106.295 193.959C101.175 197.15 94.4383 195.587 91.2464 190.468C88.0544 185.349 89.6161 178.612 94.7347 175.419C99.8532 172.227 106.591 173.787 109.784 178.905C111.319 181.364 111.814 184.332 111.159 187.155C110.505 189.979 108.755 192.426 106.295 193.959Z" fill="#FFC89E"/>
<path d="M134.701 216.847L83.1047 249.033C82.2501 249.567 81.2184 249.739 80.2367 249.512C79.255 249.285 78.4039 248.676 77.8707 247.821L45.2256 195.487L100.048 161.29L134.701 216.847Z" fill="#F4E1D6"/>
<path d="M76.4519 233.292C75.6365 231.944 75.7144 230.237 76.6492 228.969C77.584 227.701 79.1912 227.121 80.7204 227.501C82.2496 227.88 83.3989 229.145 83.6318 230.703C83.8646 232.261 83.135 233.806 81.7836 234.616C79.945 235.719 77.5612 235.127 76.4519 233.292Z" fill="#F16721"/>
<path d="M73.5075 228.553C72.6912 227.205 72.768 225.498 73.7021 224.229C74.6362 222.96 76.2433 222.38 77.7727 222.759C79.3022 223.138 80.4523 224.401 80.6858 225.96C80.9194 227.518 80.1904 229.063 78.8392 229.874C77.0014 230.977 74.6178 230.386 73.5075 228.553Z" fill="#F16721"/>
<path d="M126.952 194.258C126.197 193.144 125.149 192.185 124.242 191.201L121.197 187.872C120.782 187.419 120.107 188.088 120.522 188.541L125.243 193.692C125.966 194.483 126.517 195.194 126.724 196.269C126.872 197.016 127.175 198.858 125.978 198.935C125.386 198.974 125.353 199.924 125.978 199.883C128.602 199.711 127.96 195.739 126.952 194.258Z" fill="#FF7E64"/>
<path d="M115.981 213.44L107.607 200.016C107.296 199.517 106.799 199.162 106.225 199.029C105.652 198.896 105.049 198.997 104.55 199.308L93.1106 206.444L91.126 207.682C90.6267 207.994 90.2716 208.491 90.1389 209.064C90.0061 209.637 90.1065 210.24 90.4181 210.739L98.7919 224.16C99.1033 224.659 99.6004 225.015 100.174 225.147C100.747 225.28 101.35 225.18 101.849 224.868L111.558 218.811L115.27 216.497C115.77 216.187 116.127 215.69 116.26 215.116C116.393 214.543 116.293 213.94 115.981 213.44V213.44Z" fill="#F9A41E"/>
<path d="M117.05 219.314C115.898 219.907 114.796 220.555 113.697 221.243L82.3346 240.807L79.7575 242.416C74.8105 245.298 38.5334 185.441 28.6621 168.945C27.268 166.615 28.0271 163.645 30.3308 162.208L80.9424 130.65C80.9424 130.65 91.4519 142.03 92.1568 142.353C93.679 143.072 125.59 216.942 117.05 219.314Z" fill="#F4E1D6"/>
<path d="M62.5893 172.685C62.6367 172.558 62.6811 172.427 62.7285 172.294C60.1291 171.399 57.7084 170.051 55.578 168.313C55.2857 170.033 54.5241 171.639 53.3772 172.955L44.2273 178.663L33.3328 161.186L41.4815 156.103C44.177 155.173 46.6355 155.176 48.94 156.103L49.0585 156.154C49.5717 156.371 50.0669 156.629 50.5395 156.924C51.0097 157.227 51.4519 157.572 51.8606 157.955C52.4553 158.509 52.9724 159.14 53.3979 159.833C54.7872 161.743 58.4335 166.299 62.8144 168.192C72.5835 171.969 83.5876 167.311 87.6754 157.668C91.7632 148.024 87.4588 136.877 77.9507 132.484L66.8784 139.388C71.082 138.064 75.6727 139.268 78.6849 142.485C81.6971 145.703 82.5969 150.363 80.9989 154.47C79.401 158.578 75.5887 161.404 71.1942 161.74C64.9975 162.196 60.7113 155.786 60.7113 155.786H60.6936C59.1938 153.682 57.3167 151.874 55.1574 150.455C54.1295 149.78 53.0382 149.208 51.8991 148.745L30.4291 162.144C28.0868 163.606 27.3727 166.69 28.834 169.033L41.6888 189.64L58.3061 179.273L58.5816 179.021C60.3717 177.233 61.7408 175.069 62.5893 172.685Z" fill="#EFD6CA"/>
<path d="M135.978 216.053L134.701 216.847L80.9424 130.65L82.219 129.856C83.0737 129.323 84.1054 129.15 85.0871 129.377C86.0688 129.605 86.9199 130.213 87.453 131.068L137.192 210.816C138.302 212.598 137.758 214.942 135.978 216.053Z" fill="#F4915F"/>
<path d="M97.2606 228.509L79.488 200.028C79.1237 199.436 78.3565 200.004 78.7209 200.588L96.4934 229.068C96.8577 229.661 97.6249 229.092 97.2606 228.509Z" fill="white"/>
<path d="M81.5969 210.203L76.2948 201.705C75.9305 201.112 75.1633 201.681 75.5276 202.265L80.8268 210.763C81.2089 211.349 81.9613 210.784 81.5969 210.203Z" fill="white"/>
<path d="M94.1118 230.253L84.7072 215.176C84.3843 214.658 83.6112 215.215 83.9341 215.73L93.3387 230.807C93.6645 231.337 94.4347 230.781 94.1118 230.253Z" fill="white"/>
<path d="M90.8565 232.303L73.0454 203.751C72.6663 203.159 71.9021 203.71 72.2783 204.314L90.0952 232.866C90.4684 233.473 91.2327 232.919 90.8565 232.303Z" fill="white"/>
<path d="M78.0188 135.991C78.0958 137.747 76.6947 139.107 74.9263 138.716C73.9696 138.5 73.1284 137.904 72.3938 137.279C71.437 136.477 70.5158 135.615 69.5827 134.785C68.6497 133.956 67.764 133.209 66.8517 132.416C66.3955 133.239 65.4358 133.808 64.6183 134.338C62.9098 135.465 61.1408 136.497 59.3191 137.43C57.5419 138.319 54.6598 141.08 52.9003 140.215C51.2297 139.385 48.5786 137.253 47.3375 135.834C46.2119 134.554 46.0727 131.687 46.5851 130.016C47.5626 126.85 51.1201 124.077 52.8055 122.353C55.2936 119.821 59.3754 117.279 62.9743 118.58C66.3718 119.809 68.8185 122.697 71.0786 125.392C72.456 127.033 73.7445 128.754 74.9737 130.505C75.6313 131.441 76.2919 132.371 76.9228 133.319C77.4708 134.119 77.9773 135.001 78.0188 135.991Z" fill="#FFC89E"/>
<path d="M165.385 157.827C165.38 158.091 165.2 158.32 164.944 158.387C163.191 158.926 161.39 159.661 159.571 159.868C157.9 160.061 156.68 159.421 155.214 158.746C153.436 157.919 151.792 158.746 149.997 159.077C148.288 159.4 146.541 159.374 144.802 159.35C144.697 159.459 144.558 159.529 144.408 159.548C141.224 159.951 138.17 156.965 138.454 153.766C138.531 152.922 139.124 152.036 138.543 151.278C138.128 150.739 137.5 150.372 137.038 149.874C135.981 148.737 135.83 147.161 136.191 145.695C136.609 144.003 137.672 142.62 138.318 141.023C139.103 139.08 138.537 137.267 137.788 135.413C136.327 131.895 135.688 128.09 135.919 124.288C136.144 120.392 137.012 116.586 137.918 112.792C137.963 112.554 138.142 112.363 138.377 112.303C138.356 112.098 138.435 111.896 138.589 111.759C138.742 111.621 138.952 111.566 139.153 111.61C143.768 112.579 148.268 114.465 151.861 117.567C154.977 120.262 157.338 123.894 158.265 127.934C158.732 129.894 158.832 131.924 158.561 133.92C158.392 135.167 158.004 136.45 158.208 137.724C158.394 138.699 158.892 139.587 159.627 140.253C160.397 140.972 161.265 141.578 162.204 142.054C162.965 142.463 163.798 142.824 164.42 143.458C165.054 144.085 165.326 144.991 165.143 145.863C164.959 146.811 164.352 147.641 164.802 148.597C165.504 150.12 167.124 150.967 167.494 152.688C167.894 154.643 166.635 156.417 165.385 157.827Z" fill="#1A1A1A"/>
<path d="M170.098 150.638C169.446 148.903 167.853 148.683 166.452 147.801C166.046 147.546 165.545 147.125 165.528 146.616C165.528 146.222 165.794 145.858 165.99 145.538C166.452 144.871 166.64 144.052 166.514 143.251C166.218 141.583 164.737 140.481 163.33 139.75C161.635 138.861 160.098 138.162 159.621 136.142C159.224 134.462 159.307 132.676 159.029 130.973C158.436 127.419 157.103 123.734 153.973 121.651C153.253 121.172 152.355 122.202 153.084 122.688C155.605 124.365 156.843 127.131 157.468 130.01C157.751 131.466 157.934 132.94 158.016 134.421C158.131 135.92 158.35 137.516 159.34 138.716C160.291 139.871 161.68 140.413 162.965 141.086C163.741 141.451 164.401 142.023 164.873 142.738C165.371 143.586 165.169 144.249 164.692 145.034C163.91 146.326 164.07 147.647 165.285 148.627C166.404 149.542 168.33 149.646 168.839 151.177C169.467 153.052 167.995 154.762 166.704 155.917C165.412 157.072 163.185 158.509 161.6 156.918C160.981 156.296 160.095 157.333 160.711 157.952C163.448 160.698 167.542 157.561 169.245 155.164C170.172 153.876 170.682 152.196 170.098 150.638Z" fill="#1A1A1A"/>
<path d="M147.302 188.897C147.068 188.049 145.776 188.488 146.008 189.332C148.699 199.152 150.998 209.069 152.903 219.083C153.066 219.936 154.429 219.856 154.266 218.994C152.344 208.872 150.023 198.839 147.302 188.897Z" fill="#E8EAFF"/>
<path d="M148.007 237.972C137.509 230.221 125.528 219.065 125.528 219.065L134.052 205.372C134.052 205.372 145.859 208.766 157.124 212.842C157.779 222.013 153.416 230.576 148.007 237.972Z" fill="#FFC89E"/>
<path d="M140.619 218.731C140.531 218.849 140.427 218.938 140.323 219.045C140.157 219.939 139.747 220.771 139.138 221.447C137.124 223.743 133.739 224.631 130.791 224.67C127.459 224.705 124.443 223.574 121.73 221.69C119.174 219.913 116.864 217.641 113.898 216.563C110.208 215.221 106.336 216.266 102.728 217.253C101.366 217.62 100.243 217.454 99.4228 216.139C98.7296 215.013 98.5164 213.701 99.1976 212.608C100.779 210.087 104.132 208.929 106.943 208.553C107.602 208.468 108.264 208.418 108.928 208.402C108.703 208.313 108.478 208.239 108.253 208.171C107.029 207.81 105.733 207.768 104.488 208.05C103.226 208.346 102.246 208.997 101.173 209.685C100.303 210.244 99.2924 210.721 98.2498 210.387C97.3773 210.07 96.744 209.306 96.594 208.39C96.4555 207.573 96.5788 206.733 96.9465 205.991C96.5358 205.682 96.2214 205.263 96.0401 204.782C95.3262 202.771 96.8191 200.455 98.2972 199.214C99.2184 198.448 100.293 197.89 101.449 197.576C100.251 197.503 99.0504 197.503 97.8529 197.576C96.7895 197.614 95.6254 197.738 94.793 196.954C93.3683 195.618 94.091 193.399 95.5158 192.392C97.4056 191.077 100.22 191.071 102.429 191.275C105.018 191.558 107.539 192.285 109.882 193.423C111.492 194.193 113.047 195.072 114.538 196.053C115.628 196.53 116.718 197.016 117.811 197.499C121.935 199.347 126.034 201.249 130.131 203.165C133.685 204.83 137.8 206.343 140.255 209.575C142.323 212.268 142.8 215.958 140.619 218.731Z" fill="#FFC89E"/>
<path d="M178.49 239.222C175.394 244.907 169.449 246.714 160.67 245.147C157.805 244.643 153.081 241.699 148.007 237.961C153.416 230.555 157.782 222.001 157.124 212.836C165.993 216.047 174.523 219.682 176.674 222.416C181.594 228.627 181.594 233.535 178.49 239.222Z" fill="#208C52"/>
<path d="M165.948 214.208C164.722 213.5 163.324 213.201 161.946 212.934L157.367 212.045C156.502 211.879 156.242 213.23 157.103 213.384L161.547 214.24C162.868 214.495 164.189 214.753 165.368 215.425C166.117 215.875 166.707 214.646 165.948 214.208Z" fill="#E8EAFF"/>
<path d="M113.641 208.091C110.24 208.126 106.618 208.387 103.35 209.394C100.685 210.212 98.1876 212.418 98.8392 215.452C99.0229 216.311 100.32 215.866 100.134 215.019C99.5412 212.247 102.8 210.872 104.914 210.392C107.811 209.772 110.765 209.457 113.727 209.453C114.609 209.445 114.515 208.082 113.641 208.091Z" fill="#FF7E64"/>
<path d="M114.68 202.981C111.688 201.137 108.173 200.323 104.675 200.665C101.316 201.006 97.9239 202.442 96.2948 205.564C95.889 206.343 97.1183 206.936 97.5241 206.157C99.0051 203.307 102.296 202.173 105.329 201.98C108.41 201.796 111.471 202.576 114.088 204.211C114.84 204.67 115.43 203.44 114.68 202.981Z" fill="#FF7E64"/>
<path d="M115.347 198.645C111.36 196.109 106.206 195.09 101.621 196.444C99.6124 197.036 97.6426 198.165 96.3571 199.853C95.6706 200.729 95.2871 201.804 95.2641 202.916C95.2344 203.965 95.2315 205.173 95.9661 205.985C96.5585 206.631 97.4471 205.594 96.8547 204.948C96.5911 204.652 96.6444 203.799 96.6325 203.446C96.5833 202.863 96.6518 202.276 96.834 201.719C97.2075 200.867 97.7915 200.123 98.5312 199.557C99.9476 198.427 101.636 197.688 103.428 197.416C107.355 196.752 111.425 197.75 114.755 199.874C115.492 200.336 116.082 199.11 115.347 198.645Z" fill="#FF7E64"/>
<path d="M63.5756 125.801C61.8408 123.735 59.5428 122.217 56.9613 121.432C56.123 121.174 55.7764 122.493 56.6088 122.747C60.2863 123.894 63.2472 126.644 64.6627 130.227C64.8755 130.775 65.0477 131.338 65.1781 131.912C65.2284 132.128 65.415 132.608 65.3143 132.821C65.2136 133.035 64.5472 133.375 64.3161 133.538L60.4002 136.328C59.1413 137.217 57.9062 138.236 56.5495 138.994C54.2866 140.242 51.4443 139.533 50.0329 137.368C49.5649 136.628 48.3712 137.291 48.8481 138.035C50.0233 139.885 52.0651 141.003 54.2569 140.997C57.0057 140.997 59.2124 138.843 61.3274 137.339L65.1099 134.646C65.5572 134.326 66.2533 133.974 66.5288 133.461C66.7658 133.029 66.6769 132.531 66.591 132.072C66.1425 129.757 65.1039 127.597 63.5756 125.801V125.801Z" fill="#FF7E64"/>
<path d="M53.5282 124.886C52.7521 124.489 52.0649 125.668 52.8499 126.071C56.7154 128.044 60.2877 131.106 61.0726 135.591C61.2237 136.459 62.5537 136.112 62.3937 135.253C61.5495 130.431 57.6958 127.013 53.5282 124.886Z" fill="#FF7E64"/>
<path d="M58.5548 138.571C56.9135 134.42 53.5122 131.212 49.2717 129.818C48.4364 129.548 48.0868 130.863 48.9192 131.136C52.6965 132.382 55.7363 135.224 57.2338 138.908C57.3374 139.265 57.7003 139.48 58.0631 139.4C58.426 139.304 58.6449 138.935 58.5548 138.571V138.571Z" fill="#FF7E64"/>
<path d="M186.23 144.56C187.336 144.362 188.445 144.893 188.985 145.878C189.542 146.841 189.508 148.035 188.899 148.964C188.235 149.915 186.997 150.081 185.978 149.678C185.205 149.383 184.624 148.73 184.42 147.928C184.318 147.963 184.209 147.973 184.103 147.958C183.737 147.88 183.498 147.526 183.564 147.158C183.826 145.822 184.888 144.788 186.23 144.56ZM186.751 145.902H186.609L186.402 145.922C186.31 145.949 186.215 145.973 186.123 146.005L185.952 146.074C185.869 146.124 185.782 146.169 185.703 146.225C185.605 146.293 185.512 146.367 185.424 146.447L185.324 146.553L185.235 146.648C185.573 146.766 185.775 147.114 185.711 147.466C185.711 147.514 185.694 147.57 185.711 147.62C185.729 147.67 185.75 147.744 185.762 147.774C185.774 147.804 185.827 147.949 185.788 147.842C185.75 147.736 185.803 147.865 185.829 147.904C185.856 147.942 185.884 147.984 185.928 148.043C186.001 148.1 186.069 148.163 186.132 148.23C186.147 148.242 186.195 148.289 186.286 148.336C186.378 148.384 186.47 148.426 186.582 148.476C186.63 148.488 186.678 148.511 186.728 148.511C186.911 148.532 187.096 148.532 187.279 148.511C187.32 148.499 187.383 148.47 187.539 148.402C187.606 148.354 187.669 148.301 187.729 148.245C187.761 148.206 187.791 148.168 187.824 148.124C187.885 148.007 187.937 147.885 187.978 147.759C188.006 147.635 188.022 147.508 188.028 147.38C188.022 147.289 187.998 147.196 187.998 147.084C187.987 147.042 187.965 147.001 187.965 146.957C187.926 146.828 187.877 146.704 187.818 146.584C187.772 146.503 187.72 146.425 187.663 146.352C187.643 146.325 187.554 146.202 187.613 146.29C187.672 146.378 187.634 146.311 187.572 146.251C187.509 146.192 187.442 146.148 187.359 146.08C187.32 146.059 187.284 146.038 187.243 146.02C187.188 145.995 187.131 145.974 187.074 145.956C187.008 145.941 186.831 145.872 186.751 145.902Z" fill="white"/>
<path d="M78.2468 134.059C77.7789 132.137 76.8088 130.374 75.4358 128.95C74.8434 128.313 73.8599 129.273 74.4672 129.91C75.7508 131.248 76.6253 132.925 76.9879 134.744C77.2841 136.186 77.1034 138.538 75.2107 138.763C73.3742 138.985 72.0827 137.152 71.1082 135.893C69.8919 134.319 68.577 132.825 67.1716 131.417C66.5525 130.795 65.5809 131.752 66.203 132.374C67.5221 133.693 68.7605 135.091 69.9115 136.559C70.9364 137.869 71.9316 139.252 73.54 139.865C75.0103 140.48 76.7102 140.009 77.6544 138.725C78.6526 137.386 78.6022 135.612 78.2468 134.059Z" fill="white"/>
<path d="M44.6715 72.182C46.5736 71.8439 48.4797 72.7549 49.4108 74.4477C50.3083 76.1301 50.4126 78.1388 49.2633 79.7709C48.114 81.4029 45.9837 81.6925 44.2272 80.9994C42.8952 80.4903 41.8947 79.3637 41.5465 77.9809C41.3699 78.0382 41.183 78.0568 40.9987 78.0346C40.3647 77.9064 39.9512 77.2936 40.069 76.6576C40.4363 74.3413 42.4234 72.5938 44.6715 72.182ZM46.108 74.5688C45.9924 74.545 45.6906 74.4267 45.5514 74.4799H45.3024C45.2076 74.4858 45.1127 74.4716 44.9498 74.516C44.7871 74.5604 44.6272 74.6014 44.4704 74.6576C44.3786 74.6902 44.3077 74.688 44.1745 74.7768C44.0413 74.8655 43.8809 74.939 43.7448 75.0336C43.5759 75.1504 43.4149 75.2798 43.2643 75.4194C43.2051 75.4785 43.1457 75.5408 43.0895 75.6029L42.9391 75.766C43.5075 75.9172 43.8066 76.4972 43.7623 77.1723C43.7623 77.2551 43.7505 77.3501 43.7799 77.4389C43.8095 77.5275 43.8451 77.6549 43.8659 77.7055C43.8866 77.7558 43.9816 78.0165 43.9137 77.8246C43.8456 77.6322 43.9396 77.8569 43.984 77.9281C44.0285 77.9992 44.076 78.0677 44.153 78.1684C44.277 78.2674 44.3941 78.3748 44.5026 78.4906C44.5292 78.5143 44.6833 78.6002 44.7663 78.6742C44.9203 78.7572 45.0776 78.8286 45.2702 78.9115C45.353 78.9352 45.4363 78.9592 45.5192 78.977C45.834 79.0205 46.1528 79.0282 46.4694 79.0004C46.5434 78.9797 46.6443 78.9293 46.9166 78.8139C47.0329 78.7316 47.1423 78.6394 47.2428 78.5385C47.2991 78.4763 47.3496 78.4075 47.4059 78.3334C47.5134 78.1323 47.6037 77.922 47.6754 77.7055C47.7209 77.4833 47.7469 77.2574 47.7526 77.0307C47.7456 76.8592 47.7293 76.6879 47.7047 76.518C47.687 76.444 47.6688 76.3732 47.6481 76.2992C47.5799 76.0787 47.4956 75.863 47.3942 75.6557C47.3144 75.5167 47.2251 75.3834 47.1276 75.2563C47.095 75.2148 46.9439 74.9958 47.0446 75.1498C47.1448 75.3032 47.0119 75.1231 46.9674 75.0815C46.8638 74.9808 46.7452 74.9009 46.6032 74.7856C46.5381 74.7471 46.4905 74.7204 46.4049 74.682C46.319 74.6435 46.2236 74.5925 46.108 74.5688Z" fill="white"/>
<path d="M228.86 4.59271C220.643 -1.2663 208.984 -1.14189 199.992 2.83619C191.698 6.50918 184.968 14.5364 186.194 24.0921C186.89 29.489 190.237 33.5293 194.592 36.5329C198.478 39.2313 207.213 42.2201 205.445 48.3397C204.888 50.2651 207.93 50.9019 208.484 48.9855C209.716 44.7349 207.041 40.8931 203.685 38.5382C200.101 36.0293 196.019 34.3291 192.927 31.133C186.209 24.1987 189.372 13.5501 196.55 8.32493C204.094 2.82138 215.554 1.29591 224.064 5.33915C231.973 9.09804 236.505 17.9162 233.051 26.3078C231.141 30.9316 227.654 34.3646 223.617 37.1756C221.896 38.3605 220.19 39.7053 219.47 41.7491C218.653 44.0388 219.826 46.7254 218.688 48.8581C217.746 50.6354 220.522 52.0216 221.467 50.2562C222.696 47.9606 221.795 45.7627 222.243 43.3634C222.69 40.9642 225.463 39.7912 227.192 38.476C230.874 35.6916 234.044 32.0157 235.83 27.7236C239.384 19.1928 236.313 9.90669 228.86 4.59271Z" fill="#F9A41E"/>
<path d="M219.959 58.5767L215.427 58.1798C217.169 57.5726 218.89 56.912 220.578 56.1597C221.221 55.8635 221.698 55.3481 221.662 54.6046C221.621 53.9017 221.12 53.3108 220.433 53.1561C215.419 52.2037 210.258 52.3431 205.302 53.5649C204.488 53.7663 204.047 54.7497 204.289 55.5169C204.562 56.3246 205.424 56.7722 206.241 56.5299C208.551 55.9686 210.917 55.6705 213.294 55.6413C211.034 56.384 208.736 57.006 206.41 57.5045C204.929 57.8184 205.024 60.3718 206.555 60.508L214.754 61.2219C212.972 62.1008 211.092 62.7669 209.153 63.2065C208.336 63.3901 207.903 64.4091 208.14 65.1585C208.413 66.0175 209.272 66.3433 210.092 66.1715C213.848 65.327 217.387 63.7066 220.48 61.4144C220.996 61.068 221.259 60.4506 221.153 59.8386C221.046 59.2728 220.575 58.6301 219.959 58.5767Z" fill="#F9A41E"/>
<path d="M214.686 21.9417C215.966 21.9549 217.209 22.369 218.241 23.1262C218.35 23.07 218.448 22.9959 218.566 22.9485C220.968 21.9592 223.961 23.076 224.468 25.7893C225.033 28.8076 222.613 31.0201 220.303 32.4211C219.221 33.0698 218.063 33.6898 217.341 34.7561C216.637 35.7991 216.359 37.0715 216.564 38.3127C216.715 39.142 216.44 39.9834 215.552 40.2649C214.826 40.4959 213.751 40.0785 213.599 39.2522C213.141 37.0105 213.632 34.6789 214.956 32.8127C215.406 32.2019 215.952 31.6675 216.573 31.2307C215.942 30.9931 215.488 30.4322 215.389 29.7649C215.169 28.2694 215.403 26.7421 216.06 25.3811C215.474 25.0966 214.816 24.9928 214.171 25.0842C213.531 25.2017 212.931 25.4768 212.424 25.884C213.318 28.3602 212.592 31.4915 210.001 32.9133C209.802 33.0203 209.584 33.0893 209.36 33.1174C210.628 35.076 211.577 37.2236 212.172 39.4797C212.678 41.408 209.716 42.3592 209.21 40.4163C208.435 37.3351 206.895 34.499 204.734 32.1702C203.801 31.1868 202.716 30.3186 202.124 29.0598C201.541 27.7363 201.675 26.206 202.479 25.0042C203.735 23.0286 206.182 22.1134 208.46 22.4954C209.231 22.6192 209.962 22.9238 210.593 23.384C211.761 22.4661 213.2 21.9592 214.686 21.9417ZM208.41 25.6799C207.344 25.2415 205.904 25.5647 205.214 26.4534L205.22 26.4622C204.474 27.4038 205.074 28.1234 205.794 28.8401C206.214 29.2607 206.623 29.6879 207.026 30.1233C206.928 28.583 207.539 26.9862 208.41 25.6799ZM220.377 25.677C220.252 25.688 220.128 25.7111 220.007 25.7454C220.304 26.9558 220.106 28.2344 219.458 29.2991C219.733 29.1153 219.999 28.918 220.255 28.7073H220.261C221.051 28.029 222.34 25.6535 220.377 25.677Z" fill="#F9A41E"/>
<path d="M65.8035 22.5933C73.3338 22.5957 79.6673 28.2399 80.534 35.7202C81.4006 43.2005 76.5254 50.1436 69.1951 51.8677C69.7875 53.5086 70.6406 55.0582 71.1648 55.6772L72.1121 56.6128C75.2845 59.7467 75.2844 59.7471 74.8875 60.3276L74.4939 60.8931L73.8514 60.5972C73.6351 60.4965 73.2589 60.3358 72.7762 60.1255C69.9296 58.8992 63.3212 56.0527 58.49 52.2612H48.1228C44.1567 52.2617 40.3559 50.6712 37.5721 47.8462C34.7882 45.0211 33.2536 41.1977 33.3123 37.2319C33.416 29.1603 40.2316 22.5933 48.5047 22.5933H65.8035ZM48.4812 24.2075C41.076 24.2075 34.9911 30.0577 34.8963 37.2407C34.8495 40.777 36.2215 44.1847 38.7049 46.7026C41.1882 49.2205 44.5766 50.6389 48.1131 50.6411H59.0525L59.2742 50.8188C62.7546 53.6032 67.3165 55.8963 70.5896 57.3892L69.9324 56.7368C69.0587 55.7031 67.9419 53.4465 67.3435 51.4888L67.1453 50.8335L67.3133 50.7505V50.5728L67.9861 50.4634C74.7666 49.3212 79.5395 43.1717 78.9637 36.3198C78.3876 29.4681 72.655 24.2018 65.7791 24.2075H48.4812Z" fill="#F9A41E"/>
<path d="M67.4293 17.0334C61.8819 24.8204 57.1952 33.1858 53.4512 41.9831C51.5373 38.7529 49.4376 35.6365 47.1627 32.6495C46.1615 31.3314 44.011 32.768 45.0211 34.0921C47.8064 37.7385 50.3276 41.5792 52.5655 45.585C53.0335 46.4203 54.4494 46.2959 54.8019 45.425C58.598 35.9801 63.4935 27.0153 69.3872 18.7159C70.344 17.3741 68.3949 15.6768 67.4293 17.0334Z" fill="#FBA321"/>
<path d="M157.124 2.00356C158.278 1.79609 159.435 2.34861 160 3.37563C160.58 4.38273 160.543 5.63113 159.902 6.60122C159.224 7.59037 157.921 7.76497 156.855 7.34438C156.048 7.03674 155.442 6.35472 155.232 5.51723C155.125 5.55306 155.011 5.56385 154.9 5.54946C154.517 5.46907 154.268 5.09919 154.337 4.7145C154.559 3.31343 155.765 2.25237 157.124 2.00356ZM158.016 3.45571C157.948 3.43794 157.761 3.36648 157.678 3.39907H157.527L157.314 3.41958C157.21 3.44621 157.112 3.47297 157.018 3.50551L156.837 3.57973C156.751 3.63305 156.662 3.67775 156.576 3.73403C156.473 3.80563 156.374 3.88343 156.28 3.96743C156.245 4.00297 156.209 4.0422 156.176 4.08071L156.081 4.17836C156.434 4.30182 156.647 4.66241 156.582 5.0309C156.582 5.08126 156.564 5.13774 156.582 5.19106C156.6 5.24438 156.627 5.32453 156.636 5.35415C156.645 5.38439 156.703 5.53695 156.662 5.42543C156.621 5.31332 156.682 5.45655 156.703 5.48696C156.735 5.53715 156.77 5.58611 156.807 5.63247C156.882 5.6922 156.953 5.75737 157.018 5.82778C157.036 5.84262 157.095 5.88975 157.181 5.94008C157.267 5.99042 157.361 6.03232 157.477 6.08266L157.628 6.12368C157.825 6.14654 158.023 6.14654 158.22 6.12368C158.312 6.0909 158.402 6.05353 158.489 6.01137C158.561 5.96301 158.628 5.90729 158.689 5.84536C158.721 5.80699 158.754 5.76856 158.789 5.72133C158.853 5.59971 158.906 5.47281 158.948 5.34243H158.951C158.982 5.21117 159.002 5.07679 159.008 4.94204C159.005 4.84444 158.979 4.74976 158.979 4.63149C158.967 4.58706 158.945 4.54506 158.945 4.50063C158.904 4.36686 158.853 4.23616 158.792 4.11C158.742 4.02612 158.688 3.94476 158.629 3.86684C158.608 3.8401 158.517 3.70755 158.578 3.80141C158.64 3.89616 158.599 3.82551 158.534 3.76333C158.469 3.70112 158.398 3.65375 158.312 3.58266L158.191 3.52016C158.134 3.49539 158.075 3.4743 158.016 3.45571Z" fill="white"/>
<defs>
<linearGradient id="paint0_linear_1_629" x1="252.662" y1="245.839" x2="252.662" y2="53.9541" gradientUnits="userSpaceOnUse">
<stop stop-color="#177F47"/>
<stop offset="1" stop-color="#51D38D"/>
</linearGradient>
</defs>
</svg>
