<svg width="360" height="640" viewBox="0 0 360 640" fill="none" xmlns="http://www.w3.org/2000/svg">
<rect y="0.0522461" width="360" height="640" fill="#D8D8D8"/>
<mask id="mask0_1_392" style="mask-type:luminance" maskUnits="userSpaceOnUse" x="0" y="0" width="360" height="641">
<rect y="0.0522461" width="360" height="640" fill="white"/>
</mask>
<g mask="url(#mask0_1_392)">
<rect width="361.096" height="640" transform="matrix(1 0 0 -1 0 640)" fill="url(#paint0_linear_1_392)"/>
<mask id="mask1_1_392" style="mask-type:luminance" maskUnits="userSpaceOnUse" x="0" y="0" width="362" height="640">
<rect width="361.096" height="640" transform="matrix(1 0 0 -1 0 640)" fill="white"/>
</mask>
<g mask="url(#mask1_1_392)">
<ellipse cx="206.669" cy="41.1534" rx="1.30064" ry="1.29936" fill="white"/>
<ellipse cx="54.1727" cy="13.3149" rx="1.81484" ry="1.81305" fill="white"/>
<ellipse cx="36.0364" cy="49.6848" rx="1.81484" ry="1.81305" fill="white"/>
<path d="M361 636.625C361 636.625 309.224 556.869 215.649 550.691C118.759 544.298 112.178 588.765 55.3658 574.994C-1.44589 561.224 -0.999939 510 -0.999939 510L0.858093 640L361 636.625Z" fill="url(#paint1_linear_1_392)"/>
<path d="M0 638.145C0 638.145 36.0461 555.587 134.061 549.318C235.554 542.824 242.447 587.978 301.958 573.996C361.47 560.013 361 508 361 508L359.06 640L0 638.145Z" fill="url(#paint2_linear_1_392)"/>
<g style="mix-blend-mode:overlay" opacity="0.3">
<path d="M435.227 242C441.635 260.862 450.158 279.03 458.736 295.627C462.947 303.837 467.552 312.822 472.056 322.413L474.016 319.896C470.029 310.095 465.866 300.735 461.968 292.008C454.73 275.962 447.859 259.148 442.648 242.021H446.444C451.573 258.692 458.267 275.017 465.314 290.661C468.954 298.823 472.832 307.537 476.573 316.658L478.532 314.176C475.267 304.728 471.783 295.586 468.464 286.839C462.761 272.162 457.812 257.203 453.635 242.021H457.41C461.356 256.658 466.423 271.269 471.906 285.676C474.913 293.58 478.104 302 481.172 310.843L482.994 308.523C480.43 299.246 477.648 290.26 474.988 281.662C471.002 268.868 467.151 255.577 464.104 242.014H467.825C470.825 255.237 474.586 268.208 478.457 280.696C480.872 288.498 483.369 296.64 485.736 305.014L487.45 302.851C485.552 293.899 483.511 285.091 481.471 276.486C478.784 265.141 476.247 253.577 474.206 242.014H477.899C479.92 253.434 482.423 264.793 485.083 276.023C486.865 283.594 488.681 291.341 490.368 299.197L491.939 297.191C490.81 288.995 489.525 280.934 488.26 273.058L487.974 271.289C486.511 262.175 484.94 252.339 483.668 242.007H487.328C488.587 252.149 490.13 261.814 491.572 270.772L491.852 272.548C492.947 279.323 494.042 286.247 495.056 293.267L496.416 291.532C495.933 283.969 495.334 276.513 494.735 269.235L494.416 265.365C493.797 257.863 493.158 250.047 492.668 242.007H496.32C496.817 249.945 497.43 257.685 498.042 265.1L498.354 268.963C498.851 275.003 499.348 281.125 499.783 287.328L500.919 285.899C501.014 278.907 501.015 272.003 501.015 265.256V242.034H504.654V265.256C504.695 270.514 504.702 275.833 504.654 281.274L505.483 280.281C506.102 273.758 506.647 267.324 507.171 261.032L508.232 248.169C508.396 246.129 508.565 244.088 508.735 242.048H512.368C512.185 244.184 512.008 246.326 511.838 248.435L510.776 261.304C510.403 265.821 510.016 270.42 509.603 275.06L509.946 274.622C511.048 268.562 512.069 262.522 513.089 256.509L514.109 250.509C514.586 247.727 515.062 244.884 515.538 242.048H519.252C518.749 245.075 518.239 248.095 517.735 251.061L516.715 257.06C516.15 260.379 515.579 263.719 515.001 267.059C516.361 261.853 517.722 256.672 519.082 251.516L520.708 245.299L521.552 242.048H525.293C524.912 243.408 524.585 244.769 524.231 246.129L522.612 252.339C522.361 253.298 522.102 254.271 521.851 255.236C522.817 252.55 523.79 249.856 524.742 247.183L526.585 242.048H530.422L529.742 243.897L530.592 242.048H535.789L538 245.088L535.218 248.611C532.667 252.359 530.109 256.189 527.626 259.842C525.483 263.603 523.272 267.419 521.062 271.248C519.204 275.186 517.286 279.139 515.361 283.104C513.899 286.893 512.436 290.682 510.892 294.491C509.783 298.103 508.599 301.735 507.389 305.374C506.341 309.741 505.198 314.122 503.987 318.509C503.314 322.1 502.558 325.746 501.735 329.392C501.252 333.024 500.729 336.642 500.049 340.274C499.716 344.131 499.239 347.981 498.688 351.838C498.503 355.407 498.212 358.987 497.817 362.578C497.715 366.795 497.443 371.019 497.035 375.257C497.012 378.826 496.869 382.407 496.606 385.998C496.661 389.208 496.648 392.432 496.484 395.663C496.654 399.493 496.641 403.356 496.484 407.227C496.593 409.444 496.593 411.668 496.593 413.899C496.989 418.245 497.162 422.609 497.11 426.973C497.308 429.346 497.334 431.727 497.396 434.107C497.937 438.956 498.179 443.834 498.123 448.712C498.348 451.283 498.607 453.854 498.654 456.418C499.035 459.969 499.28 463.52 499.334 467.057C501.334 484.544 499.334 501.964 491.852 519.037C491.722 519.323 491.593 519.616 491.471 519.901C465.703 577.337 392.153 596.158 320.985 590.662C312.433 616.549 305.927 643.067 301.529 669.973H298.169C302.452 642.968 308.862 616.344 317.339 590.349C314.366 590.111 311.427 589.778 308.495 589.431C298.146 615.462 290.346 642.436 285.203 669.973H281.53C286.663 642.285 294.459 615.157 304.809 588.968C301.933 588.605 299.074 588.198 296.23 587.744L296.142 587.928C283.825 614.113 274.61 641.648 268.687 669.973H264.986C270.262 644.47 278.184 619.588 288.625 595.729C289.883 592.852 291.19 589.989 292.517 587.146C290.639 586.839 288.754 586.506 286.884 586.159C286.02 585.996 285.135 585.778 284.265 585.608C284.074 585.921 283.884 586.262 283.7 586.602C269.343 612.805 258.658 640.858 251.946 669.973H248.197C252.772 649.942 259.229 630.388 267.482 611.571C271.414 602.575 275.762 593.732 280.523 585.044C280.551 584.983 280.618 584.927 280.618 584.866C277.979 584.342 275.333 583.772 272.687 583.214C272.244 583.928 271.775 584.608 271.326 585.288C254.897 611.428 242.727 640.013 235.272 669.973H231.545C235.566 653.584 240.981 637.568 247.729 622.101C253.573 608.743 260.406 595.84 268.17 583.499C268.401 583.125 268.653 582.771 268.891 582.404C266.326 581.853 263.775 581.377 261.211 580.806C260.429 581.846 259.633 582.86 258.864 583.928C240.463 609.558 226.783 639.085 218.531 669.973H214.797C218.398 656.256 223.056 642.839 228.729 629.841C236.071 612.995 245.164 596.968 255.857 582.023C256.361 581.343 256.884 580.663 257.395 579.982C254.953 579.431 252.551 578.854 250.116 578.289C248.885 579.724 247.633 581.126 246.422 582.615C226.069 607.687 210.784 638.004 201.736 669.973H197.995C201.257 658.28 205.337 646.831 210.205 635.711C218.791 615.892 230.003 597.318 243.538 580.486C244.416 579.398 245.327 578.405 246.218 577.357L239.293 575.745C237.511 577.541 235.722 579.344 233.987 581.241C211.314 606.109 194.444 636.922 184.669 669.973H180.927C183.818 660.006 187.349 650.237 191.498 640.725C201.303 618.116 214.734 597.259 231.26 578.977C232.579 577.514 233.939 576.153 235.3 574.793L232.313 574.112L228.749 573.27C226.334 575.385 223.926 577.575 221.572 579.888C196.906 604.075 178.41 635.718 167.832 669.973H164.07C166.703 661.251 169.849 652.693 173.492 644.343C184.519 619.142 199.933 596.144 218.926 577.5C220.776 575.691 222.674 573.99 224.572 572.29L218.525 570.875C215.369 573.269 212.212 575.807 209.104 578.527C182.512 601.953 162.356 634.487 150.976 669.973H147.166C149.586 662.289 152.414 654.74 155.636 647.356C167.71 619.829 185.124 595.009 206.654 576.018C209.137 573.834 211.641 571.807 214.138 569.848L208.695 568.597C204.689 571.222 200.661 574.011 196.695 577.167C167.676 600.26 145.833 633.331 133.799 669.973H129.956C132.153 663.116 134.717 656.375 137.595 649.798C150.526 620.243 169.968 593.933 194.362 574.534C197.498 572.024 200.695 569.698 203.886 567.528C202.253 567.161 200.621 566.794 198.988 566.44C193.903 569.286 188.977 572.408 184.233 575.793C153.275 598.069 129.643 632.052 116.82 669.973H113.018C115.049 663.815 117.357 657.788 119.942 651.894C133.792 620.251 155.22 592.349 182.036 573.059C185.784 570.372 189.764 567.848 193.947 565.365C192.498 565.059 191.049 564.74 189.607 564.44C183.463 567.384 177.511 570.717 171.791 574.419C138.935 595.832 113.507 630.766 99.9023 669.973H96.0723C97.9498 664.531 100.031 659.089 102.357 653.743C117.085 620.073 140.527 590.634 169.703 571.589C174.357 568.596 179.164 565.846 184.104 563.352L180.532 562.672C173.222 565.618 166.136 569.092 159.329 573.065C123.969 593.988 96.7593 629.549 82.542 670H78.7393C80.5011 664.912 82.4266 659.886 84.583 654.961C100.052 619.638 125.473 589.03 157.391 570.106C162.866 566.903 168.524 564.023 174.336 561.481L171.689 561.012C163.142 563.873 154.842 567.43 146.874 571.644C109.657 591.641 80.5894 628.202 65.5762 669.959H61.8008C63.4197 665.368 65.161 660.817 67.1064 656.355C83.419 619.088 110.888 587.016 145.078 568.65C151.385 565.278 157.907 562.325 164.602 559.809C164.085 559.72 163.56 559.645 163.043 559.563C153.205 562.254 143.631 565.83 134.438 570.249C94.6572 589.689 63.7664 626.889 48.2021 669.952H44.4473C45.9914 665.606 47.6244 661.273 49.4814 657.028C66.4674 618.257 95.8952 585.262 132.785 567.243C139.947 563.77 147.35 560.815 154.935 558.4L154.622 558.359C143.433 560.799 132.51 564.33 122.011 568.902C82.7396 586.349 51.2703 621.475 34.1143 662.715L31.6523 659.314C31.8088 658.961 31.9373 658.593 32.0938 658.239C49.8824 617.598 81.4125 583.132 120.473 565.801C127.074 562.904 133.857 560.439 140.778 558.421C130.13 560.475 119.695 563.515 109.609 567.501C72.6851 582.397 42.3588 612.047 23.543 648.098L21.2305 644.907C40.4953 608.905 71.066 579.302 108.181 564.338C113.951 562.057 119.842 560.093 125.826 558.455C116.079 560.191 106.496 562.748 97.1807 566.1C63.1067 578.574 34.1209 603.851 14.1895 635.283L11.5977 631.657C31.7944 600.538 61.0799 575.657 95.8613 562.917C100.773 561.114 105.875 559.584 111.072 558.224C102.144 559.714 93.3428 561.885 84.7461 564.719C53.0939 575.241 25.6523 596.253 5.34668 623.039L3.11523 620.006C23.7814 593.131 51.5153 572.072 83.4873 561.454C87.0791 560.257 90.7526 559.23 94.46 558.264C86.9704 559.473 79.5634 561.15 72.2832 563.284C43.121 572.12 17.394 589.41 -2.78906 611.856L-4.90527 608.932C15.6248 586.336 41.6858 568.944 71.1816 560.006C74.3924 559.047 77.6782 558.265 80.9639 557.476C73.8542 558.526 66.8125 559.996 59.876 561.876C33.5638 569.038 9.76182 583.241 -9.91113 602.008L-12 599.13C8.01307 580.187 32.183 565.835 58.9033 558.557C80.3177 552.734 102.093 551.081 123.983 552.013C125.303 551.979 126.527 551.85 127.888 551.85C130.976 551.816 134.085 551.912 137.187 551.986C137.472 551.973 137.738 551.925 138.03 551.925C143.057 551.721 148.105 551.659 153.173 551.721C157.799 551.44 162.442 551.278 167.104 551.237C172.179 550.816 177.274 550.503 182.383 550.36C187.083 549.884 191.77 549.537 196.532 549.285C201.208 548.673 205.895 548.17 210.593 547.775C215.606 546.986 220.641 546.32 225.682 545.735C230.334 544.815 235.001 543.991 239.681 543.266C244.531 542.116 249.388 541.049 254.259 540.076C258.73 538.779 263.211 537.559 267.7 536.416C272.38 534.79 277.088 533.253 281.85 531.764C286.212 529.954 290.612 528.197 295.047 526.492C299.337 524.393 303.659 522.325 308.013 520.289C312.09 517.927 316.198 515.584 320.339 513.263C324.225 510.605 328.144 507.959 332.094 505.324C335.713 502.422 339.359 499.525 343.032 496.632C346.331 493.503 349.733 490.414 353.134 487.319C356.435 483.705 359.723 480.153 362.997 476.661C365.392 473.634 367.801 470.601 370.331 467.472C370.862 466.812 371.426 466.186 371.956 465.506C372.854 464.193 373.732 462.833 374.678 461.473C376.555 458.752 378.542 456.03 380.467 453.31C399.827 420.783 421.098 389.976 443.213 360.245C434.669 349.219 425.636 338.424 416.5 327.936C389.716 297.15 370.31 268.516 358.283 242.034H362.222C374.144 267.845 393.165 295.752 419.282 325.753C428.2 335.99 437.03 346.526 445.396 357.279L447.513 354.457C439.778 343.826 431.52 333.276 423.023 322.821C399.441 293.94 382.16 267.011 371.181 242.034H375.106C385.981 266.358 402.906 292.588 425.88 320.726C434.159 330.874 442.179 341.145 449.757 351.484L451.853 348.709C444.792 338.295 437.268 327.909 429.499 317.706C408.819 290.534 393.491 265.31 383.514 242.034H387.439C397.29 264.639 412.293 289.194 432.451 315.699C439.975 325.616 447.254 335.642 454.125 345.729L456.288 342.9C449.771 332.561 442.887 322.426 435.996 312.584C418.26 287.317 404.942 263.8 396.044 242.034H399.486C410.003 267.201 425.064 290.845 439.043 310.707C445.689 320.175 452.308 329.956 458.614 339.9L460.655 337.18C454.832 327.052 448.669 317.114 442.492 307.448C430.295 288.471 417.2 265.984 407.908 242.034H411.771C420.982 265.297 433.71 287.165 445.601 305.666C451.512 314.91 457.397 324.433 463.022 334.119L465.063 331.459C459.975 321.664 454.539 311.938 448.988 302.313C438.227 283.778 427.486 263.317 419.69 242.034H423.52C431.186 262.705 441.69 282.601 452.139 300.619C457.417 309.761 462.574 319.005 467.451 328.311L469.491 325.705C465.097 316.223 460.376 306.7 455.472 297.137C446.662 280.091 437.914 261.413 431.404 242H435.227ZM494 502C492.963 504.944 491.967 507.889 490.611 510.819C465.145 566.791 393.395 586.762 324.376 583.225C323.929 584.526 323.454 585.849 323.021 587.15H323C392.297 592.371 463.574 574.023 488.478 518.263L488.843 517.431C491.001 512.446 492.727 507.284 494 502ZM310 586.236C312.891 586.527 315.783 586.782 318.674 587C319.102 585.867 319.558 584.722 320 583.576C317.164 583.419 314.33 583.226 311.499 583C310.988 584.091 310.497 585.164 310 586.236ZM298.807 583.481L298 584.953C300.811 585.335 303.645 585.683 306.502 586C306.98 584.965 307.515 583.894 308 582.847C305.194 582.599 302.404 582.317 299.63 582C299.349 582.496 299.076 582.99 298.807 583.481ZM287.812 581.351L287 582.711C287.479 582.796 287.971 582.91 288.444 582.995C290.464 583.35 292.491 583.685 294.523 584C295.009 583.044 295.495 582.087 296 581.119C294.671 580.938 293.335 580.768 292.012 580.568C290.893 580.405 289.755 580.175 288.63 580C288.355 580.448 288.083 580.898 287.812 581.351ZM276.7 577C276.125 577.815 275.569 578.668 275 579.496C277.44 579.995 279.905 580.52 282.391 581C282.927 580.084 283.457 579.167 284 578.264C281.567 577.853 279.14 577.43 276.7 577ZM265.812 576C265.211 576.792 264.621 577.597 264.026 578.402H264C266.44 578.97 268.861 579.475 271.328 580C271.89 579.11 272.438 578.214 273 577.338C270.6 576.869 268.213 576.483 265.812 576ZM314 579.413C316.594 579.646 319.188 579.842 321.781 580C322.19 578.801 322.604 577.595 323 576.396C320.465 576.297 317.949 576.158 315.446 576C314.954 577.151 314.471 578.289 314 579.413ZM493.979 493C492.905 495.988 491.816 498.984 490.51 501.959C463.68 559.455 391.401 577.48 327.36 575.854C326.877 577.127 326.442 578.393 326 579.659C393.646 582.886 463.605 563.485 488.347 509.365C488.564 508.834 488.796 508.31 489.027 507.779C491.075 502.993 492.737 498.051 494 493H493.979ZM302 577.14C304.534 577.464 307.077 577.751 309.629 578C310.093 576.9 310.523 575.807 311 574.667C308.505 574.467 306.023 574.253 303.574 574C303.039 575.06 302.516 576.1 302 577.14ZM253 575.67C255.421 576.11 257.794 576.571 260.216 577C260.811 576.377 261.391 575.725 262 575.113C259.635 574.757 257.311 574.378 254.96 574C254.309 574.557 253.644 575.113 253 575.67ZM291.748 573C291.168 573.949 290.58 574.891 290 575.859C290.754 575.979 291.515 576.144 292.269 576.257C294.003 576.529 295.705 576.761 297.433 577C297.94 575.998 298.473 574.97 299 573.948C298.039 573.842 297.059 573.743 296.104 573.624C294.663 573.445 293.196 573.192 291.748 573ZM278.004 573.657C278.003 573.657 278.001 573.657 278 573.657V573.664C278.001 573.662 278.002 573.659 278.004 573.657C280.429 574.095 282.854 574.569 285.271 575C285.845 574.004 286.419 573.049 287 572.074C284.608 571.707 282.223 571.367 279.824 571C279.22 571.879 278.613 572.764 278.004 573.657ZM245.004 571C244.331 571.533 243.665 572.048 243 572.594L250.129 574C250.758 573.397 251.371 572.782 252 572.192C249.671 571.791 247.319 571.402 245.004 571ZM269.906 571C269.275 571.629 268.659 572.289 268.028 572.93H268C270.404 573.318 272.781 573.629 275.206 574C275.802 573.288 276.397 572.589 277 571.883C274.631 571.589 272.275 571.318 269.906 571ZM234.572 570C234.044 570.494 233.522 571.002 233 571.518L234.038 571.805C235.493 572.206 236.998 572.599 238.459 573C238.975 572.413 239.484 571.869 240 571.289L239.251 571.109L234.572 570ZM492 484C490.854 487.122 489.667 490.252 488.188 493.367C461.526 549.367 390.71 568.825 328.364 569.153C327.921 570.411 327.45 571.675 327 572.926C389.748 574.313 460.033 556.609 486.053 500.78C486.428 500.002 486.768 499.223 487.109 498.444C489.109 493.763 490.745 488.934 492 484ZM306.693 568C306.124 569.113 305.541 570.247 305 571.338C307.477 571.59 309.977 571.811 312.499 572C312.978 570.838 313.498 569.633 313.997 568.457L314 568.458V568.451C313.999 568.453 313.998 568.455 313.997 568.457C311.54 568.341 309.105 568.189 306.693 568ZM317 571.622C319.541 571.784 322.1 571.91 324.678 572C325.121 570.71 325.543 569.433 326 568.157C323.498 568.136 321.023 568.086 318.562 568C318.043 569.205 317.505 570.431 317 571.622ZM259.958 568C259.3 568.572 258.658 569.195 258 569.786C260.372 570.189 262.707 570.604 265.086 571C265.721 570.327 266.357 569.66 267 569C264.635 568.673 262.308 568.333 259.958 568ZM294.868 567C294.238 568.022 293.63 568.985 293 570.036C294.015 570.175 295.037 570.365 296.052 570.496C297.465 570.679 298.928 570.832 300.327 571C300.859 569.949 301.454 568.832 302 567.759L300.201 567.613C298.431 567.445 296.639 567.19 294.868 567ZM224.55 567C224.035 567.457 223.514 567.948 223 568.413L228.417 570C228.945 569.443 229.472 568.928 230 568.38L224.55 567ZM248 568.694L253.483 570C253.989 569.358 254.494 568.709 255 568.074L249.584 567C249.054 567.555 248.53 568.125 248 568.694ZM284.93 567.006C284.282 567.72 283.641 568.405 283 569.138C285.398 569.409 287.803 569.728 290.2 570C290.805 569.191 291.395 568.417 292 567.638C289.638 567.431 287.291 567.224 284.93 567V567.006ZM238.637 565C238.085 565.545 237.552 566.039 237 566.592L239.426 567.221L242.469 568C242.975 567.397 243.487 566.76 244 566.165L238.637 565ZM273 567.084C275.38 567.416 277.738 567.675 280.118 568C280.749 567.226 281.364 566.497 281.994 565.742C281.996 565.742 281.998 565.743 282 565.743V565.736C281.998 565.738 281.996 565.74 281.994 565.742C279.661 565.49 277.349 565.272 275.016 565L273 567.084ZM262 565.904V565.911C263.814 566.264 265.61 566.632 267.431 567C267.952 566.243 268.479 565.558 269 564.837L263.612 564L262 565.904ZM215.275 565C214.848 565.134 214.421 565.292 214 565.43L218.68 566L220 565.49L215.275 565ZM203 564.373L207.697 565L208.941 564.521H209C207.417 564.342 205.834 564.175 204.192 564L203 564.373ZM229.37 564C228.916 564.152 228.461 564.321 228 564.49L232.667 565C233.122 564.807 233.558 564.591 234 564.412C232.459 564.27 230.917 564.139 229.37 564ZM252 563.824C253.789 564.225 255.599 564.608 257.401 565C257.934 564.293 258.467 563.62 259 562.921C257.211 562.614 255.388 562.315 253.612 562L252 563.824ZM298 564.434C299.256 564.537 300.623 564.689 301.775 564.774C302.927 564.86 304.101 564.927 305.261 565C305.811 564.136 306.383 563.278 307 562.377H306.339C304.213 562.286 302.065 562.116 299.933 562L298 564.434ZM308 564.689C310.453 564.815 312.934 564.922 315.423 565C315.943 564.071 316.462 563.124 316.996 562.178C316.997 562.178 316.999 562.179 317 562.179V562.173C316.999 562.175 316.997 562.176 316.996 562.178C314.581 562.148 312.202 562.072 309.823 562C309.216 562.9 308.586 563.813 308 564.689ZM328.994 562.012C326.533 562.052 324.079 562.087 321.633 562.069C321.082 563.019 320.53 563.97 320 564.902C322.506 564.968 325.029 565 327.568 565C328.046 564.008 328.523 563.01 328.994 562.012ZM490.986 475C489.762 478.288 488.429 481.569 486.837 484.836C460.418 538.659 393.257 559.384 331.36 561.456C330.907 562.644 330.453 563.825 330 565C390.645 564.433 459.024 545.612 484.722 492.14C487.336 486.628 489.437 480.891 491 475H490.986ZM288 563.324C289.855 563.547 291.705 563.784 293.561 564C294.036 563.155 294.524 562.271 295 561.446C293.186 561.298 291.372 561.162 289.559 561L288 563.324ZM196 562.308L199.234 563L200 562.583L196.676 562L196 562.308ZM219 562.444L223.674 563L225 562.444C223.44 562.302 221.879 562.142 220.312 562L219 562.444ZM328.994 562.012C328.996 562.012 328.998 562.012 329 562.012V562C328.998 562.004 328.996 562.008 328.994 562.012ZM211 561.367C212.068 561.57 213.143 561.778 214.211 562L215 561.513L211.712 561L211 561.367ZM243 561.571L246.384 561.885L247.621 562L249 561.34L244.367 561C243.916 561.184 243.452 561.388 243 561.571ZM267 561.071L272.412 562C272.941 561.209 273.471 560.418 274 559.645L268.667 559L267 561.071ZM278.646 559C278.097 559.723 277.554 560.483 277.005 561.244C277.003 561.244 277.002 561.244 277 561.244V561.252C277.002 561.249 277.003 561.247 277.005 561.244C278.829 561.549 280.684 561.741 282.515 562C283.01 561.199 283.511 560.321 284 559.558C282.205 559.374 280.435 559.198 278.646 559ZM234 560.516L238.646 561L240 560.368L235.326 560C234.877 560.177 234.456 560.334 234 560.516ZM226 558.452L229.172 559L230 558.397L226.8 558L226 558.452ZM249 558.611L253.603 559L255 558.275L250.369 558L249 558.611ZM258 558.654L262.613 559L264 558.246L259.728 558.024L259.405 558L258 558.654ZM320 556C317.982 556.072 316.108 556.072 314.409 556.072C313.915 557.02 313.476 557.882 313 558.804C314.904 558.863 316.783 558.987 318.705 558.987V559C319.139 558 319.554 557.02 320 556ZM491 466C489.702 469.39 488.267 472.773 486.587 476.143H486.594C455.861 537.922 379.027 552.419 334.366 555.46C334.291 555.658 334.202 555.85 334.127 556.041C333.731 557.039 333.382 558.009 333 559C393.625 556.642 458.84 536.138 484.477 483.511C487.169 477.88 489.352 472.02 491 466ZM240.796 557C240.557 557.177 240.261 557.372 240 557.543L243.127 558L244 557.311L240.796 557ZM283.661 555C283.379 555.417 283.069 555.825 282.807 556.215C282.544 556.604 282.269 557.03 282 557.42V557.438C283.829 557.656 285.651 557.801 287.48 558L289 555.335C287.211 555.235 285.45 555.118 283.661 555ZM293.222 555.576L292.013 557.511H292C293.833 557.684 295.665 557.842 297.498 558L299 555.197C297.199 555.134 295.398 555.087 293.598 555C293.47 555.197 293.343 555.379 293.222 555.576ZM303.448 555.174C302.98 555.96 302.481 556.83 302 557.645C303.171 557.728 304.348 557.861 305.519 557.931C306.203 558 306.911 557.965 307.602 558C308.064 557.067 308.519 556.148 309 555.188C307.188 555.16 305.364 555.056 303.553 555L303.448 555.174ZM330 555C328.01 555.112 326.121 555.188 324.315 555.253L324.279 555.323C323.837 556.239 323.43 557.102 323 558C324.949 557.994 326.898 557.983 328.864 557.936C329.253 556.949 329.605 555.986 330 555ZM274.429 555.011C273.955 555.266 273.474 555.504 273 555.752C274.528 555.835 276.087 555.921 277.646 556L279 555.133L274.429 555V555.011ZM255 554.649L258.163 555L259 554.188L255.837 554L255 554.649ZM265.403 554C264.919 554.246 264.456 554.47 264 554.712L268.674 555L270 554.158L266.982 554.056L265.403 554ZM277 551.853L281.598 552C282.04 551.673 282.509 551.353 282.979 551.026C282.986 551.026 282.993 551.027 283 551.027V551.014C282.993 551.018 282.986 551.022 282.979 551.026C281.472 551.022 279.923 551.023 278.402 551L277 551.853ZM288.447 551.011C287.961 551.313 287.48 551.62 287 551.903C288.534 551.944 290.062 551.963 291.603 552C292.058 551.653 292.538 551.343 293 551H288.447V551.011ZM303 549C301.221 549.027 299.441 549.109 297.662 549.109C297.11 549.973 296.558 550.882 296.014 551.791H296C297.8 551.873 299.607 551.936 301.421 552C301.945 550.991 302.476 550.009 303 549ZM312 549C310.22 549.092 308.434 549.054 306.647 549.093H306.653C306.109 550.016 305.551 550.923 305 551.854C306.361 551.884 307.769 552 309.098 552H310.492C310.99 551 311.502 550 312 549ZM323 549C321.026 549.126 319.18 549.224 317.52 549.297L316 551.986V552C317.744 551.987 319.622 551.954 321.628 551.881C322.083 550.916 322.545 549.958 323 549ZM333 549C331.042 549.169 329.192 549.304 327.41 549.423C326.938 550.28 326.466 551.143 326 552C327.826 551.938 329.746 551.842 331.729 551.735C332.144 550.816 332.585 549.919 333 549ZM490.986 453C489.318 458.006 487.306 462.891 484.964 467.618C454.666 527.279 380.174 543.937 337.436 548.542C336.959 549.695 336.469 550.841 336 552C379.943 548.753 453.427 534.216 482.881 474.917C486.363 467.924 489.085 460.576 491 453H490.986ZM260.679 550.03C260.468 550.25 260.238 550.501 260 550.73L263.198 550.97L263.974 550.089C263.982 550.089 263.991 550.09 264 550.09V550.06L263.974 550.089C262.882 550.079 261.797 550.06 260.679 550.03ZM270 549.814L273.099 550L274 549.025L273.466 549H270.874C270.583 549.269 270.291 549.552 270 549.814ZM274.838 546.204L274 547H277.169C277.448 546.676 277.721 546.324 278 546L274.838 546.204ZM283.966 545.153C283.642 545.432 283.318 545.716 283 546H286.089C286.391 545.67 286.693 545.324 287 545L283.966 545.153ZM293.47 545.108C292.987 545.41 292.49 545.699 292 546H296.64L298 545L293.47 545.108ZM302.459 545.142L301 546L305.65 545.965C306.104 545.643 306.546 545.322 307 545C305.463 545.045 303.964 545.1 302.459 545.142ZM317 543C315.486 543.142 313.972 543.238 312.458 543.364C311.966 544.227 311.486 545.121 311 546H311.006C312.364 545.953 313.735 545.953 315.087 545.897H315.673C316.121 544.932 316.545 543.958 317 543ZM325 543C323.092 543.177 321.33 543.328 319.623 543.466H319.63C319.089 544.313 318.534 545.16 318 546C319.748 545.921 321.594 545.823 323.612 545.691C324.077 544.792 324.521 543.893 325 543ZM335.992 542C334.092 542.208 332.259 542.394 330.473 542.568C329.982 543.379 329.484 544.189 329 545C330.816 544.876 332.739 544.725 334.716 544.556C335.139 543.689 335.562 542.85 335.992 542ZM490.909 443.258C489.09 448.497 486.91 453.604 484.381 458.538C454.441 516.211 384.268 535.388 340.366 541.753C339.895 542.828 339.451 543.924 339 545C381.454 540.177 453.069 523.419 482.284 465.869C485.948 458.659 488.838 451.079 490.909 443.258ZM289.856 540.3L289 541L292.088 540.866C292.385 540.573 292.696 540.293 293 540L289.856 540.3ZM298.965 540.228C298.641 540.481 298.323 540.742 298 541L301.084 540.873C301.391 540.594 301.693 540.288 302 540L298.965 540.228ZM306.479 539.24C306.006 539.49 305.503 539.747 305 540C306.509 539.961 308.041 539.915 309.521 539.873C310.031 539.584 310.519 539.302 311 539.013V539C309.513 539.071 308.026 539.159 306.479 539.24ZM320 537C318.519 537.209 317.038 537.393 315.557 537.594C315.038 538.396 314.512 539.198 314 540H314.007C315.522 539.88 317.059 539.807 318.567 539.703C319.038 538.805 319.522 537.898 320 537ZM329 537C327.472 537.227 325.918 537.455 324.449 537.649C323.955 538.429 323.487 539.214 323 540H323.007C324.508 539.857 326.082 539.714 327.7 539.52C328.123 538.682 328.564 537.838 329 537ZM339 536C337.454 536.218 335.863 536.48 334.355 536.692L333 539C334.563 538.829 336.178 538.643 337.847 538.441C338.239 537.631 338.601 536.804 339 536ZM488.885 435.021C487.11 439.748 485.053 444.364 482.727 448.844C453.7 503.561 389.277 525.249 343.361 533.854C342.892 534.9 342.449 535.954 342 537C385.112 530.454 451.998 511.433 480.651 456.128C484.1 449.467 486.896 442.485 489 435.28L488.897 435L488.885 435.021ZM302.989 534.345L302 535L305.102 534.781C305.403 534.507 305.698 534.254 306 534L302.989 534.345ZM315 534C314.012 534.095 313.023 534.201 312.041 534.32C311.696 534.549 311.345 534.768 311 535C312.018 534.933 313.029 534.856 314.053 534.789C314.369 534.532 314.684 534.267 315 534.014V534ZM320.056 531.806L319 534C320.003 533.811 321.005 533.663 321.997 533.466L323 531L320.056 531.806ZM333 530C331.516 530.275 329.997 530.57 328.542 530.817C328.033 531.547 327.509 532.277 327 533H327.007C328.541 532.806 330.025 532.625 331.618 532.397L333 530ZM342 528C340.476 528.261 338.945 528.573 337.441 528.828C336.966 529.554 336.469 530.28 336 531C337.559 530.785 339.089 530.586 340.703 530.348C341.124 529.559 341.572 528.788 342 528ZM486.755 431C485.202 434.548 483.471 438.095 481.544 441.622C453.843 492.234 395.927 516.429 346.362 528.03C345.906 529.022 345.443 530.008 345 531C390.036 522.287 451.616 501.008 479.508 448.84C482.446 443.289 484.951 437.52 487 431.585C486.925 431.388 486.843 431.197 486.769 431H486.755ZM315.763 529.38C315.51 529.572 315.258 529.795 315 530L317.26 529.709L318 529L315.763 529.38ZM324.125 525.964L323 528C323.99 527.755 324.981 527.536 325.965 527.272L327 525L324.125 525.964ZM336 524C335.092 524.3 334.223 524.622 333.304 524.907L333.03 524.957C332.679 525.643 332.351 526.286 332 527L335.036 526.265C335.354 525.508 335.677 524.757 336 524ZM339 524.977V525C339.006 524.991 339.012 524.982 339.019 524.973C339.012 524.974 339.006 524.976 339 524.977ZM345 522C343.541 522.306 342.019 522.589 340.544 522.896C340.003 523.588 339.521 524.28 339.019 524.973C340.557 524.72 342.111 524.445 343.688 524.198C344.128 523.462 344.56 522.731 345 522ZM484.535 425C483.326 427.565 482.035 430.13 480.594 432.688C457.96 472.932 413.805 502.637 349.298 521.177C348.854 522.109 348.437 523.061 348 524C396.322 512.332 451.9 488.512 478.544 439.887C480.968 435.4 483.124 430.774 485 426.034C484.85 425.68 484.692 425.347 484.535 425ZM327.914 521.367C327.618 521.579 327.302 521.784 327 522C327.728 521.901 328.451 521.81 329.173 521.707C329.438 521.467 329.728 521.233 330 521L327.914 521.367ZM336.959 518.827L336.116 519.118L335 521C336 520.709 336.986 520.402 337.979 520.103L339 518.055V518C338.308 518.276 337.658 518.544 336.959 518.827ZM345.092 515.983V515.971C344.693 516.643 344.344 517.315 344 518C345.006 517.702 346.043 517.41 347.067 517.105C347.386 516.408 347.681 515.691 348 515L345.092 515.983ZM481.265 419C480.434 420.546 479.684 422.093 478.785 423.639C456.381 462.325 414.91 491.789 352.24 513.481C351.832 514.325 351.409 515.149 351 516C412.736 497.831 455.045 469.225 476.775 430.734C478.703 427.332 480.426 423.922 482 420.506C481.762 420 481.51 419.5 481.265 419ZM341.211 512.152L339.863 512.4L339 513L341.252 512.639L342 512L341.211 512.152ZM348.086 510.143C347.734 510.764 347.367 511.378 347 512C347.998 511.667 349.011 511.342 350.002 511.002C350.332 510.33 350.67 509.672 351 509L348.086 510.143ZM478.127 413C477.827 413.515 477.581 414.03 477.274 414.545C449.17 461.945 396.91 489.566 355.098 506.798L355.077 506.75C354.709 507.482 354.341 508.214 354 509C413.898 487.655 453.705 458.991 475.276 421.646C476.62 419.322 477.807 416.991 479 414.653C478.714 414.104 478.413 413.556 478.127 413ZM351.893 504.198L351 506L353.25 504.883L354 503L351.893 504.198ZM474.963 408C447.836 451.326 402.317 479.016 358.915 500.098C358.603 500.77 358.298 501.375 358 502C398.364 485.019 447.382 458.25 473.966 413.506C474.705 412.289 475.322 411.065 476 409.849C475.641 409.23 475.309 408.618 474.963 408ZM471.739 402.021C444.252 443.444 401.747 471.634 361.763 494.562C361.511 495.045 361.245 495.516 361 496C403.348 474.866 447.019 447.166 472.816 404.495C472.884 404.393 472.939 404.277 473 404.175C472.591 403.445 472.162 402.723 471.739 402V402.021ZM468.636 397C440.663 436.522 400.396 465.001 365.402 488.233L365 489C403.705 466.582 444.074 438.999 470 399.22C469.543 398.48 469.093 397.74 468.636 397ZM465.429 391C438.361 427.534 402.531 455.861 370 481C403.585 458.454 440.986 430.865 467 393.458C466.483 392.639 465.966 391.812 465.436 391H465.429ZM461.437 385C436.735 417.222 406.242 444.544 379 469C408.427 445.933 439.261 419.809 463 387.321L461.471 385.014L461.437 385ZM458.302 379C437.973 405.235 415.192 428.878 392.988 451.831C391.629 453.243 390.379 454.601 389 456C413.222 433.975 438.836 409.547 460 381.49C459.429 380.658 458.872 379.826 458.302 379ZM490.909 443.258C490.939 443.172 490.97 443.086 491 443H490.979C490.957 443.086 490.932 443.172 490.909 443.258ZM453.292 374C438.903 392.523 423.815 410.301 409.023 427.632C404.566 432.845 400.29 437.922 396 443C416.218 421.999 436.665 400.281 455 376.424L453.292 374ZM451.229 369C445.78 376.037 440.325 383.026 434.959 389.891C424.676 403.05 414.227 416.463 404 430C404.954 428.886 405.853 427.826 406.821 426.705C422.228 408.834 438.029 390.502 453 371.4C452.415 370.598 451.824 369.798 451.229 369ZM445.367 363C433.271 379.288 421.41 395.939 410 413C416.834 404.073 423.695 395.186 430.489 386.447C435.932 379.436 441.469 372.31 447 365.124C446.462 364.405 445.918 363.672 445.367 363ZM478 404.29C478.197 404.862 478.387 405.435 478.58 406C478.719 405.586 478.87 405.179 479 404.766C478.819 404.173 478.635 403.586 478.454 403C478.303 403.428 478.16 403.856 478 404.29ZM475.479 397C475.461 397.044 475.433 397.088 475.433 397.138C475.293 397.524 475.139 397.886 475 398.272C475.196 398.846 475.389 399.42 475.582 400L476 398.709L475.479 397ZM478 394.105C478.221 394.737 478.419 395.368 478.641 396C478.77 395.62 478.876 395.239 479 394.858C478.811 394.241 478.609 393.617 478.415 393L478 394.105ZM471.479 391C471.009 391.586 470.522 392.165 470 392.743C470.609 393.493 471.183 394.243 471.739 395C472.183 394.414 472.574 393.821 473 393.235C472.496 392.493 472 391.714 471.479 391ZM475 388.291C475.196 388.859 475.402 389.426 475.594 390C475.727 389.613 475.871 389.221 476 388.834C475.838 388.248 475.653 387.624 475.469 387C475.306 387.43 475.162 387.861 475 388.291ZM468.425 385.033C467.958 385.618 467.475 386.189 467 386.734C467.565 387.49 468.139 388.245 468.696 389C469.126 388.435 469.578 387.883 470 387.318C469.48 386.543 468.952 385.768 468.425 385V385.033ZM471.437 381C471.091 381.418 470.715 381.812 470.354 382.218L470 382.629C470.587 383.414 471.138 384.193 471.717 385C472.16 384.435 472.566 383.87 473 383.305C472.494 382.534 471.952 381.734 471.437 381ZM478 383.377C478.187 383.907 478.406 384.444 478.557 385L479 383.648C478.846 383.099 478.691 382.549 478.528 382C478.358 382.459 478.175 382.918 478 383.377ZM465.496 379C464.983 379.632 464.492 380.27 464 380.896L465.595 383C466.044 382.4 466.536 381.837 467 381.205C466.501 380.466 466.017 379.733 465.504 379H465.496ZM461.559 375C461.015 375.612 460.485 376.223 460 376.902C460.517 377.6 461.041 378.297 461.552 379C462.043 378.37 462.522 377.709 463 377.098C462.528 376.401 462.043 375.697 461.559 375ZM468.474 375C467.993 375.59 467.489 376.161 467 376.751V376.783C467.55 377.518 468.13 378.259 468.702 379C468.977 378.633 469.29 378.331 469.558 377.977C469.718 377.741 469.84 377.531 470 377.321C469.45 376.548 468.993 375.774 468.474 375ZM475.506 375C475.332 375.621 475.18 376.243 475 376.857C475.177 377.572 475.345 378.286 475.519 379L476 377.143C475.845 376.428 475.667 375.714 475.506 375ZM458.55 369C458.025 369.646 457.524 370.32 457 370.966L458.497 373H458.521C459.021 372.376 459.511 371.748 460 371.102C459.511 370.399 459.045 369.697 458.55 369ZM464 370.884C464.52 371.6 465.033 372.316 465.553 373C466.03 372.397 466.529 371.838 467 371.21C466.515 370.469 466.009 369.735 465.511 369C465.005 369.628 464.513 370.256 464 370.884ZM471.646 369C471.31 369.405 471.025 369.805 470.681 370.203C470.465 370.457 470.224 370.698 470 370.952C470.5 371.632 471.043 372.313 471.534 373C472.043 372.368 472.5 371.736 473 371.097C472.509 370.375 472.103 369.687 471.646 369ZM478 371.255C478.191 371.839 478.386 372.416 478.573 373L478.581 372.987C478.723 372.592 478.87 372.202 479 371.801L478.488 370L478 371.255ZM481.524 369H481.534C481.533 368.995 481.531 368.99 481.529 368.985C481.528 368.99 481.526 368.995 481.524 369ZM481.554 366C481.379 366.437 481.175 366.873 481 367.31C481.173 367.868 481.361 368.427 481.529 368.985C481.688 368.547 481.837 368.108 482 367.669C481.854 367.113 481.704 366.556 481.554 366ZM453.58 363C453.044 363.69 452.542 364.414 452 365.07C452.49 365.715 452.969 366.361 453.454 367C453.979 366.332 454.481 365.648 455 364.975L453.603 363H453.58ZM460.006 364.922H460C460.51 365.615 461.059 366.307 461.569 367L463 365.195C462.515 364.462 462.061 363.728 461.569 363L460.006 364.922ZM468.642 363C468.104 363.641 467.545 364.289 467 364.899V364.93C467.501 365.614 467.995 366.328 468.489 367C469.019 366.341 469.477 365.681 470 365.021C469.557 364.344 469.085 363.678 468.642 363ZM475.263 364.651L475 365.307C475.183 365.865 475.352 366.43 475.524 367C475.683 366.58 475.849 366.154 476 365.728C475.842 365.152 475.679 364.576 475.514 364C475.433 364.216 475.349 364.433 475.263 364.651ZM465.639 359C465.103 359.648 464.549 360.285 464.007 360.934H464C464.49 361.622 464.993 362.311 465.483 363C465.98 362.374 466.503 361.772 467 361.146C466.542 360.429 466.103 359.712 465.639 359ZM473.617 359C473.061 359.636 472.556 360.265 472 360.894V360.9C472.539 361.584 473.008 362.268 473.504 363L475 361.161C474.557 360.436 474.069 359.725 473.617 359ZM478.55 360.021C478.374 360.458 478.183 360.871 478 361.313C478.172 361.876 478.33 362.444 478.502 363C478.663 362.568 478.843 362.136 479 361.704L478.55 360.021ZM449.667 357C449.111 357.711 448.556 358.46 448 359.204C448.461 359.799 448.911 360.4 449.372 361C449.916 360.295 450.445 359.579 451 358.868L450.978 358.89C450.528 358.24 450.1 357.6 449.667 357ZM457.023 359.02H457C457.507 359.676 457.961 360.338 458.462 361L460 359.042C459.546 358.358 459.081 357.679 458.621 357L457.023 359.02ZM478.55 360.021C478.55 360.02 478.551 360.019 478.552 360.018L478.544 360L478.55 360.021ZM452 355.137C452.463 355.756 452.926 356.375 453.384 357L455 354.962H454.978C454.514 354.31 454.119 353.657 453.695 353C453.13 353.712 452.565 354.419 452 355.137ZM462.69 353C462.146 353.678 461.599 354.352 461.047 355.022H461C461.458 355.682 461.91 356.341 462.409 357C462.932 356.335 463.478 355.687 464 355.022C463.571 354.347 463.125 353.676 462.69 353ZM470.119 353.621C469.761 354.056 469.365 354.453 469 354.863V354.895C469.503 355.609 469.975 356.329 470.478 357C470.995 356.379 471.482 355.758 472 355.137C471.551 354.422 471.117 353.708 470.66 353L470.119 353.621ZM475 354.888C475.158 355.594 475.32 356.294 475.476 357C475.646 356.385 475.832 355.769 476 355.161C475.873 354.441 475.705 353.699 475.562 353L475 354.888ZM481 355.414C481.157 355.938 481.3 356.476 481.457 357C481.645 356.534 481.817 356.052 482 355.564C481.868 355.041 481.742 354.517 481.604 354H481.594C481.391 354.474 481.193 354.955 481 355.414ZM457 349.125C457.451 349.752 457.907 350.373 458.352 351L460 348.977H459.954C459.526 348.323 459.11 347.664 458.711 347L457 349.125ZM465.701 347C465.156 347.643 464.591 348.28 464.039 348.923H464C464.481 349.611 464.961 350.306 465.461 351C465.987 350.357 466.474 349.72 467 349.077C466.591 348.383 466.136 347.694 465.701 347ZM472.87 347.94L472 348.881C472.474 349.571 472.916 350.266 473.365 351C473.921 350.373 474.469 349.746 475 349.119C474.559 348.417 474.166 347.708 473.741 347C473.447 347.314 473.158 347.627 472.87 347.94ZM479.609 348C479.416 348.469 479.204 348.939 479.007 349.408H479C479.153 349.935 479.31 350.468 479.471 351C479.635 350.508 479.818 350.021 480 349.534C479.876 349.025 479.737 348.509 479.609 348ZM476 344.861C476.462 345.574 476.879 346.287 477.351 347C477.903 346.386 478.456 345.772 479 345.158C478.601 344.439 478.22 343.719 477.812 343L476 344.861ZM461 343.006C461.461 343.663 461.897 344.337 462.352 345C462.897 344.353 463.455 343.717 464 343.07H463.964C463.534 342.38 463.115 341.69 462.715 341C462.139 341.663 461.57 342.337 461 343.006ZM469.042 342.971H469C469.445 343.647 469.898 344.324 470.378 345C470.921 344.353 471.457 343.706 472 343.064C471.61 342.376 471.186 341.688 470.789 341C470.204 341.659 469.627 342.318 469.042 342.971ZM482.01 343.437H482C482.146 343.958 482.278 344.486 482.438 345L483 343.584C482.882 343.056 482.76 342.528 482.642 342C482.425 342.481 482.227 342.955 482.01 343.437ZM473.022 338.952H473C473.427 339.635 473.855 340.293 474.298 341C474.863 340.36 475.443 339.689 476 339.085C475.611 338.39 475.229 337.695 474.848 337C474.245 337.653 473.633 338.306 473.022 338.952ZM467.805 335C467.199 335.655 466.597 336.316 466 336.981C466.445 337.651 466.865 338.325 467.31 339C467.875 338.352 468.434 337.699 469 337.057H468.962C468.561 336.371 468.173 335.68 467.805 335ZM481.007 337.458H481C481.138 337.974 481.276 338.479 481.422 339C481.617 338.506 481.805 338.018 482 337.53C481.887 337.015 481.763 336.51 481.646 336L481.007 337.458ZM476 332.917C476.417 333.601 476.816 334.31 477.225 335C477.828 334.361 478.396 333.722 479 333.083C478.645 332.393 478.308 331.69 477.953 331L476 332.917ZM484.008 333.506H484C484.122 334.006 484.248 334.488 484.374 335C484.594 334.506 484.797 334.006 485 333.506C484.898 333 484.789 332.5 484.691 332L484.008 333.506ZM470 330.983C470.427 331.657 470.84 332.326 471.26 333L473 331.077L472.959 331.066C472.58 330.381 472.235 329.691 471.89 329L470 330.983ZM475 326.966C475.404 327.64 475.794 328.32 476.191 329C476.794 328.366 477.397 327.714 478 327.074H477.978C477.632 326.383 477.286 325.703 476.934 325L475 326.966ZM482 327.027C482.123 327.687 482.245 328.32 482.364 329C482.581 328.347 482.793 327.694 483 327.041C482.901 326.361 482.808 325.68 482.705 325L482 327.027ZM479 320.982C479.363 321.649 479.71 322.327 480.064 323L482 321.024H481.976C481.677 320.346 481.395 319.667 481.097 319L479 320.982ZM485 321.482C485.114 321.984 485.223 322.492 485.333 323C485.553 322.522 485.78 322.037 486 321.553H485.996C485.903 321.039 485.825 320.514 485.744 320C485.496 320.496 485.248 320.98 485 321.482ZM484 314.964C484.102 315.638 484.206 316.345 484.317 317L485 315.036H484.993C484.907 314.329 484.819 313.674 484.746 313C484.498 313.655 484.251 314.309 484 314.964ZM490 315.531C490.094 316.023 490.192 316.508 490.286 317C490.531 316.494 490.76 315.995 491 315.489L490.989 315.504C490.927 314.991 490.87 314.492 490.812 314L490 315.531ZM488 308.978C488.094 309.647 488.18 310.331 488.274 311L489 309.015H488.992C488.928 308.346 488.861 307.669 488.801 307L488 308.978ZM493 303.52C493.071 304.009 493.136 304.504 493.212 305L494 303.474H493.99C493.948 302.985 493.906 302.522 493.868 302L493 303.52Z" fill="#BCBCBC"/>
</g>
<ellipse cx="126.385" cy="74.2492" rx="1.30064" ry="1.29936" fill="white"/>
<ellipse cx="326.385" cy="72.2492" rx="1.30064" ry="1.29936" fill="white"/>
<ellipse cx="306.385" cy="182.249" rx="1.30064" ry="1.29936" fill="white"/>
</g>
</g>
<defs>
<linearGradient id="paint0_linear_1_392" x1="361.084" y1="640" x2="361.084" y2="0" gradientUnits="userSpaceOnUse">
<stop stop-color="#177F47"/>
<stop offset="1" stop-color="#51D38D"/>
</linearGradient>
<linearGradient id="paint1_linear_1_392" x1="333.554" y1="516.789" x2="339.582" y2="624.261" gradientUnits="userSpaceOnUse">
<stop stop-color="#1FC069"/>
<stop offset="1" stop-color="#ACFFB2"/>
</linearGradient>
<linearGradient id="paint2_linear_1_392" x1="27.3706" y1="514.893" x2="21.139" y2="624.006" gradientUnits="userSpaceOnUse">
<stop stop-color="#1FC069"/>
<stop offset="1" stop-color="#ACFFB2"/>
</linearGradient>
</defs>
</svg>
